<mxfile host="drawio-plugin" modified="2024-02-05T15:14:50.704Z" agent="5.0 (X11; Linux x86_64) AppleWebKit/537.36 (KHTML, like Gecko) Chrome/111.0.0.0 Safari/537.36" etag="SGyq8yDe_s34LcOvVg1D" version="20.5.3" type="embed"><diagram id="0UScg2s75SzWGqOW6Hwu" name="Page-1"><mxGraphModel dx="3827" dy="1790" grid="1" gridSize="10" guides="1" tooltips="1" connect="1" arrows="1" fold="1" page="1" pageScale="1" pageWidth="827" pageHeight="1169" math="0" shadow="0"><root><mxCell id="0"/><mxCell id="1" parent="0"/><mxCell id="2" value="Hook" style="swimlane;horizontal=0;whiteSpace=wrap;html=1;rotation=-180;fillColor=#f5f5f5;fontColor=#333333;strokeColor=#666666;" parent="1" vertex="1"><mxGeometry x="20" y="593" width="160" height="210" as="geometry"/></mxCell><mxCell id="6" value="HooksCollection" style="html=1;fillColor=#dae8fc;strokeColor=#6c8ebf;" parent="2" vertex="1"><mxGeometry x="13" y="160" width="110" height="40" as="geometry"/></mxCell><mxCell id="7" value="&lt;font style=&quot;font-size: 11px;&quot;&gt;HookAware&lt;/font&gt;" style="html=1;fillColor=#fff2cc;strokeColor=#d6b656;" parent="2" vertex="1"><mxGeometry x="13" y="60" width="110" height="40" as="geometry"/></mxCell><mxCell id="8" value="HooksCollection" style="html=1;fillColor=#fff2cc;strokeColor=#d6b656;" parent="2" vertex="1"><mxGeometry x="13" y="110" width="110" height="40" as="geometry"/></mxCell><mxCell id="9" value="Hook" style="html=1;fillColor=#fff2cc;strokeColor=#d6b656;" parent="2" vertex="1"><mxGeometry x="13" y="10" width="110" height="40" as="geometry"/></mxCell><mxCell id="10" value="Db" style="swimlane;horizontal=0;whiteSpace=wrap;html=1;rotation=-180;fillColor=#f5f5f5;fontColor=#333333;strokeColor=#666666;direction=west;" parent="1" vertex="1"><mxGeometry x="1070" y="1427" width="400" height="210" as="geometry"/></mxCell><mxCell id="11" value="Job Repository" style="html=1;fillColor=#fff2cc;strokeColor=#d6b656;" parent="10" vertex="1"><mxGeometry x="276" y="160" width="110" height="40" as="geometry"/></mxCell><mxCell id="12" value="&lt;font style=&quot;font-size: 11px;&quot;&gt;Project&amp;nbsp;&lt;/font&gt;Repository" style="html=1;fillColor=#fff2cc;strokeColor=#d6b656;" parent="10" vertex="1"><mxGeometry x="276" y="60" width="110" height="40" as="geometry"/></mxCell><mxCell id="13" value="Cluster Repository" style="html=1;fillColor=#fff2cc;strokeColor=#d6b656;" parent="10" vertex="1"><mxGeometry x="276" y="110" width="110" height="40" as="geometry"/></mxCell><mxCell id="14" value="Account Repository" style="html=1;fillColor=#fff2cc;strokeColor=#d6b656;" parent="10" vertex="1"><mxGeometry x="276" y="10" width="110" height="40" as="geometry"/></mxCell><mxCell id="197" value="AccountWriter" style="html=1;fillColor=#dae8fc;strokeColor=#6c8ebf;" vertex="1" parent="10"><mxGeometry x="153" y="10" width="110" height="40" as="geometry"/></mxCell><mxCell id="198" value="AccountLoader" style="html=1;fillColor=#dae8fc;strokeColor=#6c8ebf;" vertex="1" parent="10"><mxGeometry x="33" y="10" width="110" height="40" as="geometry"/></mxCell><mxCell id="199" value="ProjectWriter" style="html=1;fillColor=#dae8fc;strokeColor=#6c8ebf;" vertex="1" parent="10"><mxGeometry x="153" y="60" width="110" height="40" as="geometry"/></mxCell><mxCell id="200" value="ProjectLoader" style="html=1;fillColor=#dae8fc;strokeColor=#6c8ebf;" vertex="1" parent="10"><mxGeometry x="33" y="60" width="110" height="40" as="geometry"/></mxCell><mxCell id="201" value="ClusterWriter" style="html=1;fillColor=#dae8fc;strokeColor=#6c8ebf;" vertex="1" parent="10"><mxGeometry x="153" y="110" width="110" height="40" as="geometry"/></mxCell><mxCell id="202" value="ClusterLoader" style="html=1;fillColor=#dae8fc;strokeColor=#6c8ebf;" vertex="1" parent="10"><mxGeometry x="33" y="110" width="110" height="40" as="geometry"/></mxCell><mxCell id="203" value="JobWriter" style="html=1;fillColor=#dae8fc;strokeColor=#6c8ebf;" vertex="1" parent="10"><mxGeometry x="153" y="160" width="110" height="40" as="geometry"/></mxCell><mxCell id="204" value="JobLoader" style="html=1;fillColor=#dae8fc;strokeColor=#6c8ebf;" vertex="1" parent="10"><mxGeometry x="33" y="160" width="110" height="40" as="geometry"/></mxCell><mxCell id="15" value="Cluster" style="swimlane;horizontal=0;whiteSpace=wrap;html=1;rotation=-180;fillColor=#f5f5f5;fontColor=#333333;strokeColor=#666666;" vertex="1" parent="1"><mxGeometry x="538" y="1431" width="160" height="160" as="geometry"/></mxCell><mxCell id="17" value="&lt;font style=&quot;font-size: 11px;&quot;&gt;Collection&lt;/font&gt;" style="html=1;fillColor=#dae8fc;strokeColor=#6c8ebf;" vertex="1" parent="15"><mxGeometry x="13" y="56" width="110" height="40" as="geometry"/></mxCell><mxCell id="18" value="Directory" style="html=1;fillColor=#dae8fc;strokeColor=#6c8ebf;" vertex="1" parent="15"><mxGeometry x="13" y="106" width="110" height="40" as="geometry"/></mxCell><mxCell id="19" value="Driver" style="html=1;fillColor=#fff2cc;strokeColor=#d6b656;" vertex="1" parent="15"><mxGeometry x="13" y="6" width="110" height="40" as="geometry"/></mxCell><mxCell id="20" value="Compilation" style="swimlane;horizontal=0;whiteSpace=wrap;html=1;rotation=-180;fillColor=#f5f5f5;fontColor=#333333;strokeColor=#666666;" vertex="1" parent="1"><mxGeometry x="260" y="613" width="750" height="760" as="geometry"/></mxCell><mxCell id="21" value="Conductor" style="html=1;fillColor=#fff2cc;strokeColor=#d6b656;gradientColor=#A9C4EB;gradientDirection=east;" vertex="1" parent="20"><mxGeometry x="501" y="135" width="130" height="30" as="geometry"/></mxCell><mxCell id="22" value="&lt;font style=&quot;font-size: 11px;&quot;&gt;CompilerCollection&lt;/font&gt;" style="html=1;fillColor=#fff2cc;strokeColor=#d6b656;" vertex="1" parent="20"><mxGeometry x="201" y="250" width="130" height="30" as="geometry"/></mxCell><mxCell id="23" value="Compiler" style="html=1;fillColor=#fff2cc;strokeColor=#d6b656;" vertex="1" parent="20"><mxGeometry x="201" y="200" width="130" height="30" as="geometry"/></mxCell><mxCell id="24" value="&lt;font style=&quot;font-size: 10px;&quot;&gt;CompiledDeploymentFactory&lt;/font&gt;" style="html=1;fillColor=#fff2cc;strokeColor=#d6b656;gradientColor=#A9C4EB;gradientDirection=east;" vertex="1" parent="20"><mxGeometry x="298" y="720" width="130" height="30" as="geometry"/></mxCell><mxCell id="25" value="Extender" style="html=1;fillColor=#fff2cc;strokeColor=#d6b656;" vertex="1" parent="20"><mxGeometry x="201" y="45" width="130" height="30" as="geometry"/></mxCell><mxCell id="26" value="&lt;font style=&quot;font-size: 11px;&quot;&gt;CompiledDeployment&lt;/font&gt;" style="html=1;fillColor=#fff2cc;strokeColor=#d6b656;gradientColor=#A9C4EB;gradientDirection=east;" vertex="1" parent="20"><mxGeometry x="438" y="720" width="130" height="30" as="geometry"/></mxCell><mxCell id="27" value="CompiledDeployment" style="swimlane;horizontal=0;whiteSpace=wrap;html=1;rotation=-180;startSize=23;fillColor=#f5f5f5;fontColor=#333333;strokeColor=#666666;" vertex="1" parent="20"><mxGeometry x="31" y="345" width="630" height="350" as="geometry"/></mxCell><mxCell id="28" value="&lt;font style=&quot;font-size: 11px;&quot;&gt;Builder&lt;/font&gt;" style="html=1;fillColor=#fff2cc;strokeColor=#d6b656;" vertex="1" parent="27"><mxGeometry x="10" y="310" width="80" height="30" as="geometry"/></mxCell><mxCell id="112" value="" style="edgeStyle=orthogonalEdgeStyle;rounded=1;orthogonalLoop=1;jettySize=auto;html=1;fontSize=9;endArrow=block;endFill=0;" edge="1" parent="27" source="29" target="47"><mxGeometry relative="1" as="geometry"><Array as="points"><mxPoint x="310" y="295"/><mxPoint x="385" y="295"/></Array></mxGeometry></mxCell><mxCell id="29" value="PersistantVolume" style="html=1;fillColor=#fff2cc;strokeColor=#d6b656;" vertex="1" parent="27"><mxGeometry x="255" y="255" width="110" height="30" as="geometry"/></mxCell><mxCell id="30" value="Buildable" style="html=1;fillColor=#fff2cc;strokeColor=#d6b656;" vertex="1" parent="27"><mxGeometry x="100" y="310" width="80" height="30" as="geometry"/></mxCell><mxCell id="111" value="" style="edgeStyle=orthogonalEdgeStyle;rounded=1;orthogonalLoop=1;jettySize=auto;html=1;fontSize=9;entryX=0.5;entryY=0;entryDx=0;entryDy=0;endArrow=block;endFill=0;exitX=0.5;exitY=1;exitDx=0;exitDy=0;" edge="1" parent="27" source="45" target="47"><mxGeometry relative="1" as="geometry"><Array as="points"><mxPoint x="447" y="295"/><mxPoint x="385" y="295"/></Array></mxGeometry></mxCell><mxCell id="45" value="PopulatedVolume" style="html=1;fillColor=#fff2cc;strokeColor=#d6b656;" vertex="1" parent="27"><mxGeometry x="392" y="255" width="110" height="30" as="geometry"/></mxCell><mxCell id="46" value="Registrable" style="html=1;fillColor=#fff2cc;strokeColor=#d6b656;" vertex="1" parent="27"><mxGeometry x="190" y="310" width="70" height="30" as="geometry"/></mxCell><mxCell id="47" value="Volume" style="html=1;fillColor=#fff2cc;strokeColor=#d6b656;" vertex="1" parent="27"><mxGeometry x="345" y="310" width="80" height="30" as="geometry"/></mxCell><mxCell id="62" value="&lt;font style=&quot;font-size: 10px;&quot;&gt;UpgradeStrategy&lt;/font&gt;" style="html=1;fillColor=#d5e8d4;strokeColor=#82b366;" vertex="1" parent="27"><mxGeometry x="110" y="10" width="80" height="30" as="geometry"/></mxCell><mxCell id="67" value="&lt;font style=&quot;font-size: 10px;&quot;&gt;SecretReference&lt;/font&gt;" style="html=1;fillColor=#dae8fc;strokeColor=#6c8ebf;" vertex="1" parent="27"><mxGeometry x="10" y="65" width="80" height="30" as="geometry"/></mxCell><mxCell id="84" value="&lt;font style=&quot;font-size: 10px;&quot;&gt;Secret&lt;/font&gt;" style="html=1;fillColor=#dae8fc;strokeColor=#6c8ebf;" vertex="1" parent="27"><mxGeometry x="10" y="10" width="80" height="30" as="geometry"/></mxCell><mxCell id="122" value="" style="edgeStyle=orthogonalEdgeStyle;rounded=1;orthogonalLoop=1;jettySize=auto;html=1;fontSize=9;startArrow=diamond;startFill=1;endArrow=none;endFill=0;" edge="1" parent="27" source="85" target="90"><mxGeometry relative="1" as="geometry"/></mxCell><mxCell id="123" value="" style="edgeStyle=orthogonalEdgeStyle;rounded=1;orthogonalLoop=1;jettySize=auto;html=1;fontSize=9;startArrow=diamond;startFill=1;endArrow=none;endFill=0;" edge="1" parent="27" source="85" target="62"><mxGeometry relative="1" as="geometry"/></mxCell><mxCell id="85" value="&lt;font style=&quot;font-size: 10px;&quot;&gt;Pod&lt;/font&gt;" style="html=1;fillColor=#dae8fc;strokeColor=#6c8ebf;" vertex="1" parent="27"><mxGeometry x="210" y="10" width="80" height="30" as="geometry"/></mxCell><mxCell id="127" value="" style="edgeStyle=orthogonalEdgeStyle;rounded=1;orthogonalLoop=1;jettySize=auto;html=1;fontSize=9;startArrow=none;startFill=0;endArrow=open;endFill=0;entryX=0;entryY=0.5;entryDx=0;entryDy=0;dashed=1;" edge="1" parent="27" source="86" target="87"><mxGeometry relative="1" as="geometry"/></mxCell><mxCell id="86" value="&lt;font style=&quot;font-size: 10px;&quot;&gt;MapReference&lt;/font&gt;" style="html=1;fillColor=#dae8fc;strokeColor=#6c8ebf;" vertex="1" parent="27"><mxGeometry x="110" y="65" width="80" height="30" as="geometry"/></mxCell><mxCell id="87" value="&lt;font style=&quot;font-size: 10px;&quot;&gt;Map&lt;/font&gt;" style="html=1;fillColor=#dae8fc;strokeColor=#6c8ebf;" vertex="1" parent="27"><mxGeometry x="220" y="65" width="80" height="30" as="geometry"/></mxCell><mxCell id="88" value="&lt;font style=&quot;font-size: 10px;&quot;&gt;HealthCheckType&lt;/font&gt;" style="html=1;fillColor=#d5e8d4;strokeColor=#82b366;" vertex="1" parent="27"><mxGeometry x="510" y="10" width="80" height="30" as="geometry"/></mxCell><mxCell id="119" value="" style="edgeStyle=orthogonalEdgeStyle;rounded=1;orthogonalLoop=1;jettySize=auto;html=1;fontSize=9;endArrow=none;endFill=0;startArrow=diamond;startFill=1;" edge="1" parent="27" source="89" target="88"><mxGeometry relative="1" as="geometry"/></mxCell><mxCell id="120" value="" style="edgeStyle=orthogonalEdgeStyle;rounded=1;orthogonalLoop=1;jettySize=auto;html=1;fontSize=9;startArrow=none;startFill=0;endArrow=diamond;endFill=1;" edge="1" parent="27" source="89" target="90"><mxGeometry relative="1" as="geometry"/></mxCell><mxCell id="89" value="&lt;span style=&quot;font-size: 10px;&quot;&gt;HealthCheck&lt;/span&gt;" style="html=1;fillColor=#dae8fc;strokeColor=#6c8ebf;" vertex="1" parent="27"><mxGeometry x="410" y="10" width="80" height="30" as="geometry"/></mxCell><mxCell id="121" value="" style="edgeStyle=orthogonalEdgeStyle;rounded=1;orthogonalLoop=1;jettySize=auto;html=1;fontSize=9;startArrow=none;startFill=0;endArrow=open;endFill=0;dashed=1;entryX=0.5;entryY=1;entryDx=0;entryDy=0;" edge="1" parent="27" source="90" target="96"><mxGeometry relative="1" as="geometry"><mxPoint x="340" y="105" as="targetPoint"/></mxGeometry></mxCell><mxCell id="90" value="&lt;span style=&quot;font-size: 10px;&quot;&gt;Container&lt;/span&gt;" style="html=1;fillColor=#dae8fc;strokeColor=#6c8ebf;" vertex="1" parent="27"><mxGeometry x="310" y="10" width="80" height="30" as="geometry"/></mxCell><mxCell id="91" value="Expose" style="swimlane;horizontal=0;whiteSpace=wrap;html=1;rotation=-180;fillColor=#f5f5f5;fontColor=#333333;strokeColor=#666666;" vertex="1" parent="27"><mxGeometry x="10" y="115" width="120" height="170" as="geometry"/></mxCell><mxCell id="98" value="&lt;font style=&quot;font-size: 10px;&quot;&gt;Ingress&lt;/font&gt;" style="html=1;fillColor=#dae8fc;strokeColor=#6c8ebf;" vertex="1" parent="91"><mxGeometry x="10" y="10" width="80" height="30" as="geometry"/></mxCell><mxCell id="99" value="&lt;font style=&quot;font-size: 10px;&quot;&gt;IngressPath&lt;/font&gt;" style="html=1;fillColor=#dae8fc;strokeColor=#6c8ebf;" vertex="1" parent="91"><mxGeometry x="10" y="50" width="80" height="30" as="geometry"/></mxCell><mxCell id="103" value="&lt;font style=&quot;font-size: 10px;&quot;&gt;Service&lt;/font&gt;" style="html=1;fillColor=#dae8fc;strokeColor=#6c8ebf;" vertex="1" parent="91"><mxGeometry x="10" y="90" width="80" height="30" as="geometry"/></mxCell><mxCell id="104" value="&lt;font style=&quot;font-size: 10px;&quot;&gt;Transport&lt;/font&gt;" style="html=1;fillColor=#d5e8d4;strokeColor=#82b366;" vertex="1" parent="91"><mxGeometry x="10" y="130" width="80" height="30" as="geometry"/></mxCell><mxCell id="96" value="Image" style="swimlane;horizontal=0;whiteSpace=wrap;html=1;rotation=-180;fillColor=#f5f5f5;fontColor=#333333;strokeColor=#666666;" vertex="1" parent="27"><mxGeometry x="290" y="105" width="120" height="90" as="geometry"/></mxCell><mxCell id="105" value="&lt;font style=&quot;font-size: 10px;&quot;&gt;Image&lt;/font&gt;" style="html=1;fillColor=#dae8fc;strokeColor=#6c8ebf;" vertex="1" parent="96"><mxGeometry x="10" y="10" width="80" height="30" as="geometry"/></mxCell><mxCell id="106" value="&lt;font style=&quot;font-size: 9px;&quot;&gt;EmbeddedVolume&lt;br&gt;Image&lt;/font&gt;" style="html=1;fillColor=#dae8fc;strokeColor=#6c8ebf;" vertex="1" parent="96"><mxGeometry x="10" y="50" width="80" height="30" as="geometry"/></mxCell><mxCell id="97" value="Volume" style="swimlane;horizontal=0;whiteSpace=wrap;html=1;rotation=-180;fillColor=#f5f5f5;fontColor=#333333;strokeColor=#666666;" vertex="1" parent="27"><mxGeometry x="470" y="65" width="130" height="170" as="geometry"/></mxCell><mxCell id="107" value="&lt;font style=&quot;font-size: 10px;&quot;&gt;MapVolume&lt;/font&gt;" style="html=1;fillColor=#dae8fc;strokeColor=#6c8ebf;" vertex="1" parent="97"><mxGeometry x="10" y="10" width="80" height="30" as="geometry"/></mxCell><mxCell id="108" value="&lt;font style=&quot;font-size: 10px;&quot;&gt;PersistentVolume&lt;/font&gt;" style="html=1;fillColor=#dae8fc;strokeColor=#6c8ebf;" vertex="1" parent="97"><mxGeometry x="10" y="50" width="80" height="30" as="geometry"/></mxCell><mxCell id="109" value="&lt;font style=&quot;font-size: 10px;&quot;&gt;SecretVolume&lt;/font&gt;" style="html=1;fillColor=#dae8fc;strokeColor=#6c8ebf;" vertex="1" parent="97"><mxGeometry x="10" y="90" width="80" height="30" as="geometry"/></mxCell><mxCell id="110" value="&lt;font style=&quot;font-size: 10px;&quot;&gt;Volume&lt;/font&gt;" style="html=1;fillColor=#dae8fc;strokeColor=#6c8ebf;" vertex="1" parent="97"><mxGeometry x="10" y="130" width="80" height="30" as="geometry"/></mxCell><mxCell id="113" value="" style="endArrow=block;dashed=1;endFill=0;endSize=12;html=1;rounded=1;fontSize=9;exitX=1;exitY=0.5;exitDx=0;exitDy=0;entryX=0.994;entryY=0.51;entryDx=0;entryDy=0;entryPerimeter=0;" edge="1" parent="27" source="107" target="47"><mxGeometry width="160" relative="1" as="geometry"><mxPoint x="570" y="175" as="sourcePoint"/><mxPoint x="430" y="325" as="targetPoint"/><Array as="points"><mxPoint x="570" y="90"/><mxPoint x="570" y="325"/><mxPoint x="520" y="325"/></Array></mxGeometry></mxCell><mxCell id="114" value="" style="endArrow=block;dashed=1;endFill=0;endSize=12;html=1;rounded=1;fontSize=9;entryX=0.994;entryY=0.512;entryDx=0;entryDy=0;entryPerimeter=0;exitX=1;exitY=0.5;exitDx=0;exitDy=0;" edge="1" parent="27" source="109" target="47"><mxGeometry width="160" relative="1" as="geometry"><mxPoint x="570" y="185" as="sourcePoint"/><mxPoint x="440" y="325" as="targetPoint"/><Array as="points"><mxPoint x="570" y="170"/><mxPoint x="570" y="325"/></Array></mxGeometry></mxCell><mxCell id="115" value="" style="endArrow=block;dashed=1;endFill=0;endSize=12;html=1;rounded=1;fontSize=9;entryX=1;entryY=0.5;entryDx=0;entryDy=0;exitX=0.75;exitY=1;exitDx=0;exitDy=0;" edge="1" parent="27" source="110" target="45"><mxGeometry width="160" relative="1" as="geometry"><mxPoint x="540" y="205" as="sourcePoint"/><mxPoint x="434.5200000000002" y="335.3599999999999" as="targetPoint"/><Array as="points"><mxPoint x="540" y="270"/><mxPoint x="520" y="270"/></Array></mxGeometry></mxCell><mxCell id="116" value="" style="endArrow=block;dashed=1;endFill=0;endSize=12;html=1;rounded=1;fontSize=9;entryX=0.5;entryY=0;entryDx=0;entryDy=0;exitX=0;exitY=0.5;exitDx=0;exitDy=0;" edge="1" parent="27" source="108" target="29"><mxGeometry width="160" relative="1" as="geometry"><mxPoint x="392.0000000000002" y="200" as="sourcePoint"/><mxPoint x="318.68000000000006" y="252" as="targetPoint"/><Array as="points"><mxPoint x="460" y="130"/><mxPoint x="460" y="235"/><mxPoint x="310" y="235"/></Array></mxGeometry></mxCell><mxCell id="117" value="" style="endArrow=block;dashed=1;endFill=0;endSize=12;html=1;rounded=1;fontSize=9;entryX=0.5;entryY=0;entryDx=0;entryDy=0;exitX=0;exitY=0.75;exitDx=0;exitDy=0;" edge="1" parent="27" source="110" target="46"><mxGeometry width="160" relative="1" as="geometry"><mxPoint x="550" y="235" as="sourcePoint"/><mxPoint x="512" y="280" as="targetPoint"/><Array as="points"><mxPoint x="225" y="218"/></Array></mxGeometry></mxCell><mxCell id="118" value="" style="endArrow=block;dashed=1;endFill=0;endSize=12;html=1;rounded=1;fontSize=9;entryX=0.75;entryY=0;entryDx=0;entryDy=0;exitX=0.5;exitY=0;exitDx=0;exitDy=0;" edge="1" parent="27" source="96" target="30"><mxGeometry width="160" relative="1" as="geometry"><mxPoint x="490" y="220" as="sourcePoint"/><mxPoint x="235" y="320" as="targetPoint"/><Array as="points"><mxPoint x="350" y="205"/><mxPoint x="160" y="205"/><mxPoint x="160" y="285"/></Array></mxGeometry></mxCell><mxCell id="126" value="" style="edgeStyle=orthogonalEdgeStyle;rounded=1;orthogonalLoop=1;jettySize=auto;html=1;fontSize=9;startArrow=none;startFill=0;endArrow=open;endFill=0;dashed=1;entryX=0.5;entryY=1;entryDx=0;entryDy=0;exitX=0.5;exitY=0;exitDx=0;exitDy=0;" edge="1" parent="27" source="67" target="84"><mxGeometry relative="1" as="geometry"><mxPoint x="360" y="50" as="sourcePoint"/><mxPoint x="360" y="115" as="targetPoint"/></mxGeometry></mxCell><mxCell id="124" value="" style="edgeStyle=orthogonalEdgeStyle;rounded=1;orthogonalLoop=1;jettySize=auto;html=1;fontSize=9;startArrow=diamond;startFill=1;endArrow=none;endFill=0;entryX=0.25;entryY=0;entryDx=0;entryDy=0;" edge="1" parent="20" source="26" target="27"><mxGeometry relative="1" as="geometry"><mxPoint x="351" y="355" as="sourcePoint"/><mxPoint x="381" y="355" as="targetPoint"/></mxGeometry></mxCell><mxCell id="184" value="" style="edgeStyle=orthogonalEdgeStyle;rounded=1;orthogonalLoop=1;jettySize=auto;html=1;fontSize=10;startArrow=none;startFill=0;endArrow=open;endFill=0;entryX=0.75;entryY=1;entryDx=0;entryDy=0;dashed=1;" edge="1" parent="20" source="169" target="27"><mxGeometry relative="1" as="geometry"/></mxCell><mxCell id="185" value="Build / Create" style="edgeLabel;html=1;align=center;verticalAlign=middle;resizable=0;points=[];fontSize=10;" vertex="1" connectable="0" parent="184"><mxGeometry x="-0.2763" y="-1" relative="1" as="geometry"><mxPoint as="offset"/></mxGeometry></mxCell><mxCell id="169" value="Compiler" style="swimlane;horizontal=0;whiteSpace=wrap;html=1;rotation=-180;fillColor=#f5f5f5;fontColor=#333333;strokeColor=#666666;" vertex="1" parent="20"><mxGeometry x="31" y="20" width="120" height="260" as="geometry"/></mxCell><mxCell id="170" value="&lt;font style=&quot;font-size: 10px;&quot;&gt;HookCompiler&lt;/font&gt;" style="html=1;fillColor=#dae8fc;strokeColor=#6c8ebf;" vertex="1" parent="169"><mxGeometry x="10" y="100" width="80" height="20" as="geometry"/></mxCell><mxCell id="171" value="&lt;font size=&quot;1&quot;&gt;ImageCompiler&lt;/font&gt;" style="html=1;fillColor=#dae8fc;strokeColor=#6c8ebf;" vertex="1" parent="169"><mxGeometry x="10" y="130" width="80" height="20" as="geometry"/></mxCell><mxCell id="174" value="&lt;font size=&quot;1&quot;&gt;MapCompiler&lt;/font&gt;" style="html=1;fillColor=#dae8fc;strokeColor=#6c8ebf;" vertex="1" parent="169"><mxGeometry x="10" y="160" width="80" height="20" as="geometry"/></mxCell><mxCell id="181" value="&lt;font size=&quot;1&quot;&gt;SecretCompiler&lt;/font&gt;" style="html=1;fillColor=#dae8fc;strokeColor=#6c8ebf;" vertex="1" parent="169"><mxGeometry x="10" y="190" width="80" height="20" as="geometry"/></mxCell><mxCell id="183" value="&lt;font size=&quot;1&quot;&gt;VolumeCompiler&lt;/font&gt;" style="html=1;fillColor=#dae8fc;strokeColor=#6c8ebf;" vertex="1" parent="169"><mxGeometry x="10" y="220" width="80" height="20" as="geometry"/></mxCell><mxCell id="173" value="&lt;font size=&quot;1&quot;&gt;IngressCompiler&lt;/font&gt;" style="html=1;fillColor=#dae8fc;strokeColor=#6c8ebf;" vertex="1" parent="169"><mxGeometry x="10" y="40" width="80" height="20" as="geometry"/></mxCell><mxCell id="180" value="&lt;font size=&quot;1&quot;&gt;PodCompiler&lt;/font&gt;" style="html=1;fillColor=#dae8fc;strokeColor=#6c8ebf;" vertex="1" parent="169"><mxGeometry x="10" y="10" width="80" height="20" as="geometry"/></mxCell><mxCell id="182" value="&lt;font size=&quot;1&quot;&gt;ServiceCompiler&lt;/font&gt;" style="html=1;fillColor=#dae8fc;strokeColor=#6c8ebf;" vertex="1" parent="169"><mxGeometry x="10" y="70" width="80" height="20" as="geometry"/></mxCell><mxCell id="186" value="" style="edgeStyle=orthogonalEdgeStyle;rounded=1;orthogonalLoop=1;jettySize=auto;html=1;fontSize=10;startArrow=none;startFill=0;endArrow=block;endFill=0;entryX=0;entryY=0.5;entryDx=0;entryDy=0;dashed=1;exitX=0;exitY=0.25;exitDx=0;exitDy=0;" edge="1" parent="20" source="169" target="23"><mxGeometry relative="1" as="geometry"><mxPoint x="101.02051443900905" y="290" as="sourcePoint"/><mxPoint x="198.5" y="355" as="targetPoint"/></mxGeometry></mxCell><mxCell id="188" value="" style="edgeStyle=orthogonalEdgeStyle;rounded=1;orthogonalLoop=1;jettySize=auto;html=1;fontSize=10;startArrow=none;startFill=0;endArrow=block;endFill=0;dashed=1;exitX=1;exitY=0.5;exitDx=0;exitDy=0;" edge="1" parent="20" source="180"><mxGeometry relative="1" as="geometry"><mxPoint x="161" y="225" as="sourcePoint"/><mxPoint x="201" y="60" as="targetPoint"/><Array as="points"><mxPoint x="161" y="40"/><mxPoint x="161" y="60"/></Array></mxGeometry></mxCell><mxCell id="189" value="" style="edgeStyle=orthogonalEdgeStyle;rounded=1;orthogonalLoop=1;jettySize=auto;html=1;fontSize=10;startArrow=none;startFill=0;endArrow=block;endFill=0;dashed=1;exitX=1.004;exitY=0.571;exitDx=0;exitDy=0;exitPerimeter=0;" edge="1" parent="20" source="182"><mxGeometry relative="1" as="geometry"><mxPoint x="131" y="50" as="sourcePoint"/><mxPoint x="201" y="60" as="targetPoint"/><Array as="points"><mxPoint x="161" y="101"/><mxPoint x="161" y="60"/></Array></mxGeometry></mxCell><mxCell id="190" value="" style="edgeStyle=orthogonalEdgeStyle;rounded=1;orthogonalLoop=1;jettySize=auto;html=1;fontSize=10;startArrow=none;startFill=0;endArrow=block;endFill=0;dashed=1;exitX=1;exitY=0.5;exitDx=0;exitDy=0;entryX=0;entryY=0.5;entryDx=0;entryDy=0;" edge="1" parent="20" source="173" target="25"><mxGeometry relative="1" as="geometry"><mxPoint x="121" y="70" as="sourcePoint"/><mxPoint x="191" y="60" as="targetPoint"/></mxGeometry></mxCell><mxCell id="193" value="" style="endArrow=none;html=1;rounded=1;dashed=1;fontSize=10;exitX=1;exitY=0.5;exitDx=0;exitDy=0;entryX=1;entryY=0.5;entryDx=0;entryDy=0;endFill=0;startArrow=open;startFill=0;" edge="1" parent="20" source="26" target="21"><mxGeometry width="50" height="50" relative="1" as="geometry"><mxPoint x="841" y="350" as="sourcePoint"/><mxPoint x="891" y="300" as="targetPoint"/><Array as="points"><mxPoint x="691" y="735"/><mxPoint x="691" y="150"/></Array></mxGeometry></mxCell><mxCell id="194" value="Manage" style="edgeLabel;html=1;align=center;verticalAlign=middle;resizable=0;points=[];fontSize=10;" vertex="1" connectable="0" parent="193"><mxGeometry x="0.6486" y="-2" relative="1" as="geometry"><mxPoint as="offset"/></mxGeometry></mxCell><mxCell id="195" value="" style="endArrow=none;html=1;rounded=1;dashed=1;fontSize=10;exitX=0;exitY=0.5;exitDx=0;exitDy=0;entryX=0;entryY=0.5;entryDx=0;entryDy=0;endFill=0;startArrow=open;startFill=0;" edge="1" parent="20" source="169" target="21"><mxGeometry width="50" height="50" relative="1" as="geometry"><mxPoint x="421" y="745" as="sourcePoint"/><mxPoint x="641" y="160" as="targetPoint"/><Array as="points"/></mxGeometry></mxCell><mxCell id="196" value="Manage" style="edgeLabel;html=1;align=center;verticalAlign=middle;resizable=0;points=[];fontSize=10;" vertex="1" connectable="0" parent="195"><mxGeometry x="0.6486" y="-2" relative="1" as="geometry"><mxPoint as="offset"/></mxGeometry></mxCell><mxCell id="128" value="BuildAh / Docker Build" style="swimlane;horizontal=0;whiteSpace=wrap;html=1;rotation=-180;fillColor=#e1d5e7;strokeColor=#9673a6;" vertex="1" parent="1"><mxGeometry x="20" y="1203" width="160" height="160" as="geometry"/></mxCell><mxCell id="130" value="&lt;font style=&quot;font-size: 11px;&quot;&gt;Factory&lt;/font&gt;" style="html=1;fillColor=#fff2cc;strokeColor=#d6b656;gradientColor=#A9C4EB;gradientDirection=east;" vertex="1" parent="128"><mxGeometry x="13" y="80" width="110" height="40" as="geometry"/></mxCell><mxCell id="132" value="ImageWrapper" style="html=1;fillColor=#dae8fc;strokeColor=#6c8ebf;" vertex="1" parent="128"><mxGeometry x="13" y="30" width="110" height="40" as="geometry"/></mxCell><mxCell id="133" value="" style="endArrow=block;dashed=1;html=1;rounded=1;fontSize=9;exitX=0;exitY=0.5;exitDx=0;exitDy=0;entryX=0;entryY=0.5;entryDx=0;entryDy=0;endFill=0;" edge="1" parent="1" source="128" target="28"><mxGeometry width="50" height="50" relative="1" as="geometry"><mxPoint x="1040" y="1148" as="sourcePoint"/><mxPoint x="1090" y="1098" as="targetPoint"/></mxGeometry></mxCell><mxCell id="135" value="Kubernetes" style="swimlane;horizontal=0;whiteSpace=wrap;html=1;rotation=-180;fillColor=#e1d5e7;strokeColor=#9673a6;" vertex="1" parent="1"><mxGeometry x="198" y="1433" width="310" height="204" as="geometry"/></mxCell><mxCell id="136" value="&lt;font style=&quot;font-size: 11px;&quot;&gt;Factory&lt;/font&gt;" style="html=1;fillColor=#fff2cc;strokeColor=#d6b656;gradientColor=#A9C4EB;gradientDirection=east;" vertex="1" parent="135"><mxGeometry x="163" y="144" width="110" height="40" as="geometry"/></mxCell><mxCell id="148" value="" style="edgeStyle=orthogonalEdgeStyle;rounded=1;orthogonalLoop=1;jettySize=auto;html=1;fontSize=9;startArrow=diamondThin;startFill=1;endArrow=none;endFill=0;" edge="1" parent="135" source="137" target="146"><mxGeometry relative="1" as="geometry"/></mxCell><mxCell id="137" value="Driver" style="html=1;fillColor=#dae8fc;strokeColor=#6c8ebf;" vertex="1" parent="135"><mxGeometry x="163" y="4" width="110" height="40" as="geometry"/></mxCell><mxCell id="146" value="&lt;font style=&quot;font-size: 11px;&quot;&gt;Transcriber&lt;/font&gt;" style="html=1;fillColor=#fff2cc;strokeColor=#d6b656;gradientColor=#A9C4EB;gradientDirection=east;" vertex="1" parent="135"><mxGeometry x="163" y="74" width="110" height="40" as="geometry"/></mxCell><mxCell id="149" value="&lt;font style=&quot;font-size: 10px;&quot;&gt;ConfigMap&lt;/font&gt;" style="html=1;fillColor=#fff2cc;strokeColor=#d6b656;" vertex="1" parent="135"><mxGeometry x="10" y="2" width="90" height="20" as="geometry"/></mxCell><mxCell id="150" value="&lt;font style=&quot;font-size: 10px;&quot;&gt;Deployment&lt;/font&gt;" style="html=1;fillColor=#fff2cc;strokeColor=#d6b656;" vertex="1" parent="135"><mxGeometry x="10" y="28" width="90" height="20" as="geometry"/></mxCell><mxCell id="151" value="&lt;font style=&quot;font-size: 10px;&quot;&gt;Ingress&lt;/font&gt;" style="html=1;fillColor=#fff2cc;strokeColor=#d6b656;" vertex="1" parent="135"><mxGeometry x="10" y="53" width="90" height="20" as="geometry"/></mxCell><mxCell id="157" value="" style="edgeStyle=orthogonalEdgeStyle;rounded=1;orthogonalLoop=1;jettySize=auto;html=1;fontSize=10;startArrow=none;startFill=0;endArrow=diamond;endFill=1;" edge="1" parent="135" source="152" target="146"><mxGeometry relative="1" as="geometry"><Array as="points"><mxPoint x="130" y="87"/><mxPoint x="130" y="94"/></Array></mxGeometry></mxCell><mxCell id="152" value="&lt;font style=&quot;font-size: 10px;&quot;&gt;Namespace&lt;/font&gt;" style="html=1;fillColor=#fff2cc;strokeColor=#d6b656;" vertex="1" parent="135"><mxGeometry x="10" y="79" width="90" height="20" as="geometry"/></mxCell><mxCell id="153" value="&lt;font style=&quot;font-size: 10px;&quot;&gt;Secret&lt;/font&gt;" style="html=1;fillColor=#fff2cc;strokeColor=#d6b656;" vertex="1" parent="135"><mxGeometry x="10" y="105" width="90" height="20" as="geometry"/></mxCell><mxCell id="154" value="&lt;font style=&quot;font-size: 10px;&quot;&gt;Service&lt;/font&gt;" style="html=1;fillColor=#fff2cc;strokeColor=#d6b656;" vertex="1" parent="135"><mxGeometry x="10" y="131" width="90" height="20" as="geometry"/></mxCell><mxCell id="155" value="&lt;font style=&quot;font-size: 10px;&quot;&gt;StatefuleSets&lt;/font&gt;" style="html=1;fillColor=#fff2cc;strokeColor=#d6b656;" vertex="1" parent="135"><mxGeometry x="10" y="156" width="90" height="20" as="geometry"/></mxCell><mxCell id="156" value="&lt;span style=&quot;font-size: 10px;&quot;&gt;Volume&lt;/span&gt;" style="html=1;fillColor=#fff2cc;strokeColor=#d6b656;" vertex="1" parent="135"><mxGeometry x="10" y="182" width="90" height="20" as="geometry"/></mxCell><mxCell id="158" value="" style="edgeStyle=orthogonalEdgeStyle;rounded=1;orthogonalLoop=1;jettySize=auto;html=1;fontSize=10;startArrow=none;startFill=0;endArrow=diamond;endFill=1;entryX=0;entryY=0.5;entryDx=0;entryDy=0;exitX=1;exitY=0.5;exitDx=0;exitDy=0;" edge="1" parent="135" source="149" target="146"><mxGeometry relative="1" as="geometry"><mxPoint x="110" y="97" as="sourcePoint"/><mxPoint x="173" y="104.02564102564111" as="targetPoint"/></mxGeometry></mxCell><mxCell id="159" value="" style="edgeStyle=orthogonalEdgeStyle;rounded=1;orthogonalLoop=1;jettySize=auto;html=1;fontSize=10;startArrow=none;startFill=0;endArrow=diamond;endFill=1;exitX=1;exitY=0.5;exitDx=0;exitDy=0;entryX=0;entryY=0.5;entryDx=0;entryDy=0;" edge="1" parent="135" source="150" target="146"><mxGeometry relative="1" as="geometry"><mxPoint x="120" y="107" as="sourcePoint"/><mxPoint x="160" y="94" as="targetPoint"/></mxGeometry></mxCell><mxCell id="160" value="" style="edgeStyle=orthogonalEdgeStyle;rounded=1;orthogonalLoop=1;jettySize=auto;html=1;fontSize=10;startArrow=none;startFill=0;endArrow=diamond;endFill=1;exitX=1.018;exitY=0.512;exitDx=0;exitDy=0;exitPerimeter=0;entryX=0;entryY=0.5;entryDx=0;entryDy=0;" edge="1" parent="135" source="151" target="146"><mxGeometry relative="1" as="geometry"><mxPoint x="130" y="117" as="sourcePoint"/><mxPoint x="193" y="124.02564102564111" as="targetPoint"/></mxGeometry></mxCell><mxCell id="161" value="" style="edgeStyle=orthogonalEdgeStyle;rounded=1;orthogonalLoop=1;jettySize=auto;html=1;fontSize=10;startArrow=none;startFill=0;endArrow=diamond;endFill=1;exitX=1.014;exitY=0.481;exitDx=0;exitDy=0;exitPerimeter=0;entryX=0;entryY=0.5;entryDx=0;entryDy=0;" edge="1" parent="135" source="153" target="146"><mxGeometry relative="1" as="geometry"><mxPoint x="140" y="127" as="sourcePoint"/><mxPoint x="203" y="134.0256410256411" as="targetPoint"/></mxGeometry></mxCell><mxCell id="162" value="" style="edgeStyle=orthogonalEdgeStyle;rounded=1;orthogonalLoop=1;jettySize=auto;html=1;fontSize=10;startArrow=none;startFill=0;endArrow=diamond;endFill=1;exitX=1;exitY=0.5;exitDx=0;exitDy=0;entryX=0;entryY=0.5;entryDx=0;entryDy=0;" edge="1" parent="135" source="154" target="146"><mxGeometry relative="1" as="geometry"><mxPoint x="150" y="137" as="sourcePoint"/><mxPoint x="213" y="144.0256410256411" as="targetPoint"/></mxGeometry></mxCell><mxCell id="163" value="" style="edgeStyle=orthogonalEdgeStyle;rounded=1;orthogonalLoop=1;jettySize=auto;html=1;fontSize=10;startArrow=none;startFill=0;endArrow=diamond;endFill=1;exitX=1;exitY=0.5;exitDx=0;exitDy=0;entryX=0;entryY=0.5;entryDx=0;entryDy=0;" edge="1" parent="135" source="155" target="146"><mxGeometry relative="1" as="geometry"><mxPoint x="160" y="147" as="sourcePoint"/><mxPoint x="223" y="154.0256410256411" as="targetPoint"/></mxGeometry></mxCell><mxCell id="164" value="" style="edgeStyle=orthogonalEdgeStyle;rounded=1;orthogonalLoop=1;jettySize=auto;html=1;fontSize=10;startArrow=none;startFill=0;endArrow=diamond;endFill=1;exitX=1.014;exitY=0.51;exitDx=0;exitDy=0;exitPerimeter=0;entryX=0;entryY=0.5;entryDx=0;entryDy=0;" edge="1" parent="135" source="156" target="146"><mxGeometry relative="1" as="geometry"><mxPoint x="170" y="157" as="sourcePoint"/><mxPoint x="233" y="164.0256410256411" as="targetPoint"/></mxGeometry></mxCell><mxCell id="147" value="" style="edgeStyle=orthogonalEdgeStyle;rounded=1;orthogonalLoop=1;jettySize=auto;html=1;dashed=1;fontSize=9;startArrow=none;startFill=0;endArrow=block;endFill=0;" edge="1" parent="1" source="137" target="19"><mxGeometry relative="1" as="geometry"/></mxCell><mxCell id="165" value="" style="endArrow=open;dashed=1;html=1;dashPattern=1 3;strokeWidth=2;rounded=1;fontSize=10;exitX=0;exitY=0.5;exitDx=0;exitDy=0;entryX=0.5;entryY=1;entryDx=0;entryDy=0;endFill=0;" edge="1" parent="1" source="15" target="26"><mxGeometry width="50" height="50" relative="1" as="geometry"><mxPoint x="1140" y="1308" as="sourcePoint"/><mxPoint x="1190" y="1258" as="targetPoint"/><Array as="points"><mxPoint x="763" y="1511"/></Array></mxGeometry></mxCell><mxCell id="166" value="Use" style="edgeLabel;html=1;align=center;verticalAlign=middle;resizable=0;points=[];fontSize=10;" vertex="1" connectable="0" parent="165"><mxGeometry x="-0.053" y="-2" relative="1" as="geometry"><mxPoint as="offset"/></mxGeometry></mxCell><mxCell id="167" value="" style="endArrow=open;dashed=1;html=1;dashPattern=1 3;strokeWidth=2;rounded=1;fontSize=10;exitX=0.5;exitY=0;exitDx=0;exitDy=0;endFill=0;entryX=0.5;entryY=1;entryDx=0;entryDy=0;" edge="1" parent="1" source="128" target="26"><mxGeometry width="50" height="50" relative="1" as="geometry"><mxPoint x="530" y="1498" as="sourcePoint"/><mxPoint x="800" y="1358" as="targetPoint"/><Array as="points"><mxPoint x="100" y="1388"/><mxPoint x="340" y="1388"/><mxPoint x="760" y="1388"/></Array></mxGeometry></mxCell><mxCell id="168" value="Use" style="edgeLabel;html=1;align=center;verticalAlign=middle;resizable=0;points=[];fontSize=10;" vertex="1" connectable="0" parent="167"><mxGeometry x="-0.053" y="-2" relative="1" as="geometry"><mxPoint as="offset"/></mxGeometry></mxCell><mxCell id="191" value="" style="endArrow=none;dashed=1;html=1;dashPattern=1 3;strokeWidth=2;rounded=1;fontSize=10;endFill=0;entryX=0;entryY=0.5;entryDx=0;entryDy=0;startArrow=open;startFill=0;" edge="1" parent="1" target="170"><mxGeometry width="50" height="50" relative="1" as="geometry"><mxPoint x="180" y="743" as="sourcePoint"/><mxPoint x="230" y="903" as="targetPoint"/><Array as="points"><mxPoint x="220" y="743"/></Array></mxGeometry></mxCell><mxCell id="192" value="Use" style="edgeLabel;html=1;align=center;verticalAlign=middle;resizable=0;points=[];fontSize=10;" vertex="1" connectable="0" parent="191"><mxGeometry x="-0.053" y="-2" relative="1" as="geometry"><mxPoint y="-3" as="offset"/></mxGeometry></mxCell><mxCell id="205" value="Doctrine ODM" style="swimlane;horizontal=0;whiteSpace=wrap;html=1;rotation=-180;fillColor=#e1d5e7;strokeColor=#9673a6;startSize=23;" vertex="1" parent="1"><mxGeometry x="1500" y="1427" width="160" height="210" as="geometry"/></mxCell><mxCell id="206" value="JobRepository" style="html=1;fillColor=#dae8fc;strokeColor=#6c8ebf;" vertex="1" parent="205"><mxGeometry x="13" y="160" width="110" height="40" as="geometry"/></mxCell><mxCell id="207" value="&lt;font style=&quot;font-size: 11px;&quot;&gt;ProjectRepository&lt;/font&gt;" style="html=1;fillColor=#dae8fc;strokeColor=#6c8ebf;" vertex="1" parent="205"><mxGeometry x="13" y="60" width="110" height="40" as="geometry"/></mxCell><mxCell id="208" value="ClusterRepository" style="html=1;fillColor=#dae8fc;strokeColor=#6c8ebf;" vertex="1" parent="205"><mxGeometry x="13" y="110" width="110" height="40" as="geometry"/></mxCell><mxCell id="209" value="AccountRepository" style="html=1;fillColor=#dae8fc;strokeColor=#6c8ebf;" vertex="1" parent="205"><mxGeometry x="13" y="10" width="110" height="40" as="geometry"/></mxCell><mxCell id="210" value="" style="edgeStyle=orthogonalEdgeStyle;rounded=1;orthogonalLoop=1;jettySize=auto;html=1;dashed=1;fontSize=10;startArrow=none;startFill=0;endArrow=block;endFill=0;" edge="1" parent="1" source="209" target="14"><mxGeometry relative="1" as="geometry"/></mxCell><mxCell id="211" value="" style="edgeStyle=orthogonalEdgeStyle;rounded=1;orthogonalLoop=1;jettySize=auto;html=1;dashed=1;fontSize=10;startArrow=none;startFill=0;endArrow=block;endFill=0;exitX=0;exitY=0.5;exitDx=0;exitDy=0;entryX=1;entryY=0.5;entryDx=0;entryDy=0;" edge="1" parent="1" source="207" target="12"><mxGeometry relative="1" as="geometry"><mxPoint x="1523" y="1467" as="sourcePoint"/><mxPoint x="1473" y="1467" as="targetPoint"/></mxGeometry></mxCell><mxCell id="212" value="" style="edgeStyle=orthogonalEdgeStyle;rounded=1;orthogonalLoop=1;jettySize=auto;html=1;dashed=1;fontSize=10;startArrow=none;startFill=0;endArrow=block;endFill=0;entryX=1;entryY=0.5;entryDx=0;entryDy=0;exitX=0;exitY=0.5;exitDx=0;exitDy=0;" edge="1" parent="1" source="208" target="13"><mxGeometry relative="1" as="geometry"><mxPoint x="1533" y="1477" as="sourcePoint"/><mxPoint x="1483" y="1477" as="targetPoint"/></mxGeometry></mxCell><mxCell id="213" value="" style="edgeStyle=orthogonalEdgeStyle;rounded=1;orthogonalLoop=1;jettySize=auto;html=1;dashed=1;fontSize=10;startArrow=none;startFill=0;endArrow=block;endFill=0;entryX=1;entryY=0.5;entryDx=0;entryDy=0;exitX=0;exitY=0.5;exitDx=0;exitDy=0;" edge="1" parent="1" source="206" target="11"><mxGeometry relative="1" as="geometry"><mxPoint x="1543" y="1487" as="sourcePoint"/><mxPoint x="1493" y="1487" as="targetPoint"/></mxGeometry></mxCell><mxCell id="215" value="&lt;span style=&quot;font-size: 12px;&quot;&gt;Bases vendors&lt;br&gt;&lt;/span&gt;" style="swimlane;whiteSpace=wrap;html=1;fontSize=9;gradientDirection=east;fillColor=#6a00ff;strokeColor=#3700CC;fontColor=#ffffff;" vertex="1" parent="1"><mxGeometry x="970" y="163" width="740" height="130" as="geometry"/></mxCell><mxCell id="217" value="Teknoo&#10;State" style="shape=module;align=left;spacingLeft=20;align=center;verticalAlign=middle;fontSize=12;gradientDirection=east;fillColor=#f8cecc;strokeColor=#b85450;" vertex="1" parent="215"><mxGeometry x="16" y="47" width="100" height="60" as="geometry"/></mxCell><mxCell id="218" value="Teknoo&#10;Recipe" style="shape=module;align=left;spacingLeft=20;align=center;verticalAlign=middle;fontSize=12;gradientDirection=east;fillColor=#f8cecc;strokeColor=#b85450;" vertex="1" parent="215"><mxGeometry x="139" y="47" width="100" height="60" as="geometry"/></mxCell><mxCell id="219" value="Teknoo&#10;East &#10;Founation" style="shape=module;align=left;spacingLeft=20;align=center;verticalAlign=middle;fontSize=12;gradientDirection=east;fillColor=#f8cecc;strokeColor=#b85450;" vertex="1" parent="215"><mxGeometry x="262" y="47" width="100" height="60" as="geometry"/></mxCell><mxCell id="220" value="Teknoo&#10;East &#10;Common" style="shape=module;align=left;spacingLeft=20;align=center;verticalAlign=middle;fontSize=12;gradientDirection=east;fillColor=#f8cecc;strokeColor=#b85450;" vertex="1" parent="215"><mxGeometry x="384" y="47" width="100" height="60" as="geometry"/></mxCell><mxCell id="222" value="PSR 7&#10;DI" style="shape=module;align=left;spacingLeft=20;align=center;verticalAlign=middle;fontSize=12;gradientDirection=east;fillColor=#f8cecc;strokeColor=#b85450;" vertex="1" parent="215"><mxGeometry x="500" y="47" width="100" height="60" as="geometry"/></mxCell><mxCell id="223" value="PHP-DI" style="shape=module;align=left;spacingLeft=20;align=center;verticalAlign=middle;fontSize=12;gradientDirection=east;fillColor=#f8cecc;strokeColor=#b85450;" vertex="1" parent="215"><mxGeometry x="623" y="47" width="100" height="60" as="geometry"/></mxCell><mxCell id="241" value="Kubernetes Vendors" style="swimlane;horizontal=0;whiteSpace=wrap;html=1;fontSize=12;gradientDirection=east;fillColor=#6a00ff;fontColor=#ffffff;strokeColor=#3700CC;" vertex="1" parent="1"><mxGeometry x="20" y="1433" width="120" height="204" as="geometry"/></mxCell><mxCell id="242" value="Teknoo&#10;Kubernetes&#10;Client" style="shape=module;align=left;spacingLeft=20;align=center;verticalAlign=middle;fontSize=12;gradientDirection=east;fillColor=#f8cecc;strokeColor=#b85450;" vertex="1" parent="241"><mxGeometry x="27" y="72.5" width="87" height="55" as="geometry"/></mxCell><mxCell id="245" value="PSR&#10;Http&#10;Client" style="shape=module;align=left;spacingLeft=20;align=center;verticalAlign=middle;fontSize=12;gradientDirection=east;fillColor=#f8cecc;strokeColor=#b85450;" vertex="1" parent="241"><mxGeometry x="27" y="139" width="87" height="55" as="geometry"/></mxCell><mxCell id="243" value="" style="endArrow=none;html=1;strokeWidth=2;rounded=1;fontSize=10;exitX=1;exitY=0.513;exitDx=0;exitDy=0;endFill=0;entryX=1;entryY=0.5;entryDx=0;entryDy=0;exitPerimeter=0;startArrow=diamond;startFill=1;" edge="1" parent="1" source="135" target="242"><mxGeometry width="50" height="50" relative="1" as="geometry"><mxPoint x="670" y="1521" as="sourcePoint"/><mxPoint x="773" y="1373" as="targetPoint"/><Array as="points"><mxPoint x="170" y="1533"/></Array></mxGeometry></mxCell><mxCell id="246" value="Object" style="swimlane;horizontal=0;whiteSpace=wrap;html=1;rotation=-180;fillColor=#f5f5f5;fontColor=#333333;strokeColor=#666666;direction=west;" vertex="1" parent="1"><mxGeometry x="1070" y="984" width="400" height="390" as="geometry"/></mxCell><mxCell id="293" value="" style="edgeStyle=orthogonalEdgeStyle;rounded=1;orthogonalLoop=1;jettySize=auto;html=1;fontSize=12;startArrow=diamond;startFill=1;endArrow=none;endFill=0;" edge="1" parent="246" source="251" target="254"><mxGeometry relative="1" as="geometry"/></mxCell><mxCell id="251" value="Cluster" style="html=1;fillColor=#dae8fc;strokeColor=#6c8ebf;" vertex="1" parent="246"><mxGeometry x="115.5" y="156.5" width="110" height="40" as="geometry"/></mxCell><mxCell id="299" value="" style="edgeStyle=orthogonalEdgeStyle;rounded=1;orthogonalLoop=1;jettySize=auto;html=1;fontSize=12;startArrow=diamond;startFill=0;endArrow=none;endFill=0;" edge="1" parent="246" source="252" target="259"><mxGeometry relative="1" as="geometry"/></mxCell><mxCell id="252" value="Account" style="html=1;fillColor=#dae8fc;strokeColor=#6c8ebf;" vertex="1" parent="246"><mxGeometry x="40" y="13.5" width="110" height="40" as="geometry"/></mxCell><mxCell id="253" value="Environment" style="html=1;fillColor=#dae8fc;strokeColor=#6c8ebf;" vertex="1" parent="246"><mxGeometry x="189" y="84.5" width="110" height="40" as="geometry"/></mxCell><mxCell id="254" value="ClusterCredential" style="html=1;fillColor=#dae8fc;strokeColor=#6c8ebf;" vertex="1" parent="246"><mxGeometry x="262.5" y="156.5" width="110" height="40" as="geometry"/></mxCell><mxCell id="255" value="History" style="html=1;fillColor=#dae8fc;strokeColor=#6c8ebf;" vertex="1" parent="246"><mxGeometry x="262.5" y="336.5" width="110" height="40" as="geometry"/></mxCell><mxCell id="292" value="" style="edgeStyle=orthogonalEdgeStyle;rounded=1;orthogonalLoop=1;jettySize=auto;html=1;fontSize=12;startArrow=diamond;startFill=1;endArrow=none;endFill=0;" edge="1" parent="246" source="256" target="260"><mxGeometry relative="1" as="geometry"/></mxCell><mxCell id="256" value="GitRepository" style="html=1;fillColor=#dae8fc;strokeColor=#6c8ebf;" vertex="1" parent="246"><mxGeometry x="115.5" y="216.5" width="110" height="40" as="geometry"/></mxCell><mxCell id="290" value="" style="edgeStyle=orthogonalEdgeStyle;rounded=1;orthogonalLoop=1;jettySize=auto;html=1;fontSize=12;startArrow=diamond;startFill=1;endArrow=none;endFill=0;" edge="1" parent="246" source="257" target="255"><mxGeometry relative="1" as="geometry"/></mxCell><mxCell id="257" value="Job" style="html=1;fillColor=#dae8fc;strokeColor=#6c8ebf;" vertex="1" parent="246"><mxGeometry x="115.5" y="336.5" width="110" height="40" as="geometry"/></mxCell><mxCell id="291" value="" style="edgeStyle=orthogonalEdgeStyle;rounded=1;orthogonalLoop=1;jettySize=auto;html=1;fontSize=12;startArrow=diamond;startFill=1;endArrow=none;endFill=0;" edge="1" parent="246" source="258" target="261"><mxGeometry relative="1" as="geometry"/></mxCell><mxCell id="258" value="ImageRegistry" style="html=1;fillColor=#dae8fc;strokeColor=#6c8ebf;" vertex="1" parent="246"><mxGeometry x="115.5" y="276.5" width="110" height="40" as="geometry"/></mxCell><mxCell id="294" value="" style="edgeStyle=orthogonalEdgeStyle;rounded=1;orthogonalLoop=1;jettySize=auto;html=1;fontSize=12;startArrow=diamond;startFill=1;endArrow=none;endFill=0;" edge="1" parent="246" source="259" target="253"><mxGeometry relative="1" as="geometry"/></mxCell><mxCell id="259" value="Project" style="html=1;fillColor=#dae8fc;strokeColor=#6c8ebf;" vertex="1" parent="246"><mxGeometry x="40" y="84.5" width="110" height="40" as="geometry"/></mxCell><mxCell id="260" value="SshIdentity" style="html=1;fillColor=#dae8fc;strokeColor=#6c8ebf;" vertex="1" parent="246"><mxGeometry x="262.5" y="216.5" width="110" height="40" as="geometry"/></mxCell><mxCell id="261" value="XRegistryAuth" style="html=1;fillColor=#dae8fc;strokeColor=#6c8ebf;" vertex="1" parent="246"><mxGeometry x="262.5" y="276.5" width="110" height="40" as="geometry"/></mxCell><mxCell id="295" value="" style="edgeStyle=orthogonalEdgeStyle;rounded=1;orthogonalLoop=1;jettySize=auto;html=1;fontSize=12;startArrow=diamond;startFill=1;endArrow=none;endFill=0;exitX=0.5;exitY=1;exitDx=0;exitDy=0;entryX=0;entryY=0.5;entryDx=0;entryDy=0;" edge="1" parent="246" source="259" target="251"><mxGeometry relative="1" as="geometry"><mxPoint x="162" y="114.5" as="sourcePoint"/><mxPoint x="199" y="114.5" as="targetPoint"/></mxGeometry></mxCell><mxCell id="296" value="" style="edgeStyle=orthogonalEdgeStyle;rounded=1;orthogonalLoop=1;jettySize=auto;html=1;fontSize=12;startArrow=diamond;startFill=1;endArrow=none;endFill=0;exitX=0.5;exitY=1;exitDx=0;exitDy=0;entryX=0;entryY=0.5;entryDx=0;entryDy=0;" edge="1" parent="246" source="259" target="256"><mxGeometry relative="1" as="geometry"><mxPoint x="105" y="134.5" as="sourcePoint"/><mxPoint x="125.5" y="194.5" as="targetPoint"/></mxGeometry></mxCell><mxCell id="297" value="" style="edgeStyle=orthogonalEdgeStyle;rounded=1;orthogonalLoop=1;jettySize=auto;html=1;fontSize=12;startArrow=diamond;startFill=1;endArrow=none;endFill=0;exitX=0.5;exitY=1;exitDx=0;exitDy=0;entryX=0;entryY=0.5;entryDx=0;entryDy=0;" edge="1" parent="246" source="259" target="258"><mxGeometry relative="1" as="geometry"><mxPoint x="115" y="144.5" as="sourcePoint"/><mxPoint x="135.5" y="204.5" as="targetPoint"/></mxGeometry></mxCell><mxCell id="298" value="" style="edgeStyle=orthogonalEdgeStyle;rounded=1;orthogonalLoop=1;jettySize=auto;html=1;fontSize=12;startArrow=diamond;startFill=1;endArrow=none;endFill=0;exitX=0.5;exitY=1;exitDx=0;exitDy=0;entryX=0;entryY=0.5;entryDx=0;entryDy=0;" edge="1" parent="246" source="259" target="257"><mxGeometry relative="1" as="geometry"><mxPoint x="125" y="154.5" as="sourcePoint"/><mxPoint x="145.5" y="214.5" as="targetPoint"/></mxGeometry></mxCell><mxCell id="274" value="Job" style="swimlane;horizontal=0;whiteSpace=wrap;html=1;rotation=-180;fillColor=#f5f5f5;fontColor=#333333;strokeColor=#666666;direction=west;" vertex="1" parent="1"><mxGeometry x="1070" y="823" width="170" height="120" as="geometry"/></mxCell><mxCell id="348" value="JobUnit" style="html=1;fillColor=#fff2cc;strokeColor=#d6b656;gradientColor=#A9C4EB;gradientDirection=east;" vertex="1" parent="274"><mxGeometry x="40" y="68.5" width="110" height="40" as="geometry"/></mxCell><mxCell id="351" value="SerialGenerator" style="html=1;fillColor=#dae8fc;strokeColor=#6c8ebf;gradientDirection=east;" vertex="1" parent="274"><mxGeometry x="40" y="12.5" width="110" height="40" as="geometry"/></mxCell><mxCell id="286" value="Workspace" style="swimlane;horizontal=0;whiteSpace=wrap;html=1;rotation=-180;fillColor=#f5f5f5;fontColor=#333333;strokeColor=#666666;direction=west;" vertex="1" parent="1"><mxGeometry x="1071" y="613" width="171" height="180" as="geometry"/></mxCell><mxCell id="359" value="" style="edgeStyle=orthogonalEdgeStyle;rounded=1;orthogonalLoop=1;jettySize=auto;html=1;fontSize=12;startArrow=diamond;startFill=0;endArrow=none;endFill=0;entryX=0.5;entryY=1;entryDx=0;entryDy=0;" edge="1" parent="286" source="356" target="357"><mxGeometry relative="1" as="geometry"/></mxCell><mxCell id="356" value="JobWorkspace" style="html=1;fillColor=#fff2cc;strokeColor=#d6b656;" vertex="1" parent="286"><mxGeometry x="39" y="130" width="110" height="40" as="geometry"/></mxCell><mxCell id="360" value="" style="edgeStyle=orthogonalEdgeStyle;rounded=1;orthogonalLoop=1;jettySize=auto;html=1;fontSize=12;startArrow=diamond;startFill=1;endArrow=none;endFill=0;" edge="1" parent="286" source="357" target="358"><mxGeometry relative="1" as="geometry"/></mxCell><mxCell id="357" value="File" style="html=1;fillColor=#fff2cc;strokeColor=#d6b656;gradientColor=#D4E1F5;gradientDirection=east;" vertex="1" parent="286"><mxGeometry x="39" y="70" width="110" height="40" as="geometry"/></mxCell><mxCell id="358" value="Visibility" style="html=1;fillColor=#d5e8d4;strokeColor=#82b366;gradientDirection=east;" vertex="1" parent="286"><mxGeometry x="39" y="10" width="110" height="40" as="geometry"/></mxCell><mxCell id="287" value="Parser" style="swimlane;horizontal=0;whiteSpace=wrap;html=1;rotation=-180;fillColor=#f5f5f5;fontColor=#333333;strokeColor=#666666;direction=west;" vertex="1" parent="1"><mxGeometry x="712" y="523" width="150" height="70" as="geometry"/></mxCell><mxCell id="345" value="YamlValidator" style="html=1;fillColor=#dae8fc;strokeColor=#6c8ebf;" vertex="1" parent="287"><mxGeometry x="30" y="15" width="110" height="40" as="geometry"/></mxCell><mxCell id="288" value="Recipe" style="swimlane;horizontal=0;whiteSpace=wrap;html=1;rotation=-180;fillColor=#f5f5f5;fontColor=#333333;strokeColor=#666666;direction=west;fontStyle=0" vertex="1" parent="1"><mxGeometry x="280" y="243" width="660" height="235" as="geometry"/></mxCell><mxCell id="403" value="History" style="swimlane;whiteSpace=wrap;html=1;fontSize=12;gradientDirection=east;fillColor=#f5f5f5;fontColor=#333333;strokeColor=#666666;" vertex="1" parent="288"><mxGeometry x="390" y="15" width="120" height="70" as="geometry"/></mxCell><mxCell id="404" value="DispatchHistory" style="html=1;fillColor=#fff2cc;strokeColor=#d6b656;" vertex="1" parent="403"><mxGeometry x="10" y="30" width="100" height="30" as="geometry"/></mxCell><mxCell id="405" value="Job" style="swimlane;whiteSpace=wrap;html=1;fontSize=12;gradientDirection=east;fillColor=#f5f5f5;fontColor=#333333;strokeColor=#666666;startSize=23;" vertex="1" parent="288"><mxGeometry x="520" y="15" width="120" height="70" as="geometry"/></mxCell><mxCell id="406" value="DispatchResult" style="html=1;fillColor=#fff2cc;strokeColor=#d6b656;" vertex="1" parent="405"><mxGeometry x="11" y="35" width="99" height="25" as="geometry"/></mxCell><mxCell id="410" value="Cookbooks" style="swimlane;horizontal=0;whiteSpace=wrap;html=1;fontSize=12;gradientDirection=east;fillColor=#f5f5f5;fontColor=#333333;strokeColor=#666666;" vertex="1" parent="288"><mxGeometry x="41.5" y="135" width="598.5" height="90" as="geometry"/></mxCell><mxCell id="409" value="&lt;font style=&quot;font-size: 10px; font-weight: normal;&quot;&gt;NewAccount&lt;br&gt;Endpoint&lt;/font&gt;" style="shape=folder;fontStyle=1;spacingTop=10;tabWidth=40;tabHeight=14;tabPosition=left;html=1;fontSize=12;gradientDirection=east;fillColor=#fff2cc;strokeColor=#d6b656;gradientColor=#D4E1F5;verticalAlign=middle;" vertex="1" parent="410"><mxGeometry x="38" y="20" width="70" height="50" as="geometry"/></mxCell><mxCell id="411" value="&lt;font style=&quot;font-size: 10px; font-weight: normal;&quot;&gt;EditAccount&lt;br&gt;Endpoint&lt;/font&gt;" style="shape=folder;fontStyle=1;spacingTop=10;tabWidth=40;tabHeight=14;tabPosition=left;html=1;fontSize=12;gradientDirection=east;fillColor=#fff2cc;strokeColor=#d6b656;gradientColor=#D4E1F5;verticalAlign=middle;" vertex="1" parent="410"><mxGeometry x="119" y="20" width="70" height="50" as="geometry"/></mxCell><mxCell id="412" value="&lt;span style=&quot;font-weight: normal;&quot;&gt;&lt;font style=&quot;font-size: 10px;&quot;&gt;NewProject&lt;br&gt;Endpoint&lt;/font&gt;&lt;/span&gt;" style="shape=folder;fontStyle=1;spacingTop=10;tabWidth=40;tabHeight=14;tabPosition=left;html=1;fontSize=12;gradientDirection=east;fillColor=#fff2cc;strokeColor=#d6b656;gradientColor=#D4E1F5;verticalAlign=middle;" vertex="1" parent="410"><mxGeometry x="197" y="20" width="70" height="50" as="geometry"/></mxCell><mxCell id="413" value="&lt;font style=&quot;font-size: 10px; font-weight: normal;&quot;&gt;EditProject&lt;br&gt;Endpoint&lt;/font&gt;" style="shape=folder;fontStyle=1;spacingTop=10;tabWidth=40;tabHeight=14;tabPosition=left;html=1;fontSize=12;gradientDirection=east;fillColor=#fff2cc;strokeColor=#d6b656;gradientColor=#D4E1F5;verticalAlign=middle;" vertex="1" parent="410"><mxGeometry x="277" y="20" width="70" height="50" as="geometry"/></mxCell><mxCell id="414" value="&lt;span style=&quot;font-weight: normal;&quot;&gt;AddHistory&lt;/span&gt;" style="shape=folder;fontStyle=1;spacingTop=10;tabWidth=40;tabHeight=14;tabPosition=left;html=1;fontSize=12;gradientDirection=east;fillColor=#fff2cc;strokeColor=#d6b656;gradientColor=#D4E1F5;verticalAlign=middle;" vertex="1" parent="410"><mxGeometry x="440" y="20" width="70" height="50" as="geometry"/></mxCell><mxCell id="416" value="&lt;span style=&quot;font-weight: normal;&quot;&gt;RunJob&lt;/span&gt;" style="shape=folder;fontStyle=1;spacingTop=10;tabWidth=40;tabHeight=14;tabPosition=left;html=1;fontSize=12;gradientDirection=east;fillColor=#fff2cc;strokeColor=#d6b656;gradientColor=#D4E1F5;verticalAlign=middle;" vertex="1" parent="410"><mxGeometry x="520" y="20" width="70" height="50" as="geometry"/></mxCell><mxCell id="415" value="&lt;span style=&quot;font-weight: normal;&quot;&gt;NewJob&lt;/span&gt;" style="shape=folder;fontStyle=1;spacingTop=10;tabWidth=40;tabHeight=14;tabPosition=left;html=1;fontSize=12;gradientDirection=east;fillColor=#fff2cc;strokeColor=#d6b656;gradientColor=#D4E1F5;verticalAlign=middle;" vertex="1" parent="410"><mxGeometry x="360" y="20" width="70" height="50" as="geometry"/></mxCell><mxCell id="407" value="Worker" style="swimlane;whiteSpace=wrap;html=1;fontSize=12;gradientDirection=east;fillColor=#f5f5f5;fontColor=#333333;strokeColor=#666666;" vertex="1" parent="288"><mxGeometry x="250" y="15" width="120" height="70" as="geometry"/></mxCell><mxCell id="408" value="DispatchJob" style="html=1;fillColor=#fff2cc;strokeColor=#d6b656;" vertex="1" parent="407"><mxGeometry x="10" y="30" width="100" height="30" as="geometry"/></mxCell><mxCell id="420" value="Include" style="edgeStyle=orthogonalEdgeStyle;rounded=1;orthogonalLoop=1;jettySize=auto;html=1;fontSize=10;startArrow=diamond;startFill=1;endArrow=none;endFill=0;exitX=0;exitY=0;exitDx=40;exitDy=0;exitPerimeter=0;" edge="1" parent="288" source="416" target="406"><mxGeometry relative="1" as="geometry"><Array as="points"><mxPoint x="600" y="155"/><mxPoint x="600" y="110"/><mxPoint x="581" y="110"/></Array></mxGeometry></mxCell><mxCell id="421" value="Include" style="edgeStyle=orthogonalEdgeStyle;rounded=1;orthogonalLoop=1;jettySize=auto;html=1;fontSize=10;startArrow=diamond;startFill=1;endArrow=none;endFill=0;exitX=0;exitY=0;exitDx=40;exitDy=0;exitPerimeter=0;entryX=0.463;entryY=0.989;entryDx=0;entryDy=0;entryPerimeter=0;" edge="1" parent="288" source="414" target="404"><mxGeometry relative="1" as="geometry"><mxPoint x="606.5" y="165" as="sourcePoint"/><mxPoint x="590.5" y="85" as="targetPoint"/><Array as="points"><mxPoint x="522" y="110"/><mxPoint x="446" y="110"/></Array></mxGeometry></mxCell><mxCell id="422" value="Include" style="edgeStyle=orthogonalEdgeStyle;rounded=1;orthogonalLoop=1;jettySize=auto;html=1;fontSize=10;startArrow=diamond;startFill=1;endArrow=none;endFill=0;exitX=0;exitY=0;exitDx=40;exitDy=0;exitPerimeter=0;entryX=0.5;entryY=1;entryDx=0;entryDy=0;" edge="1" parent="288" source="415" target="408"><mxGeometry relative="1" as="geometry"><mxPoint x="531.5" y="165" as="sourcePoint"/><mxPoint x="456.29999999999995" y="84.67000000000007" as="targetPoint"/><Array as="points"><mxPoint x="442" y="150"/><mxPoint x="440" y="150"/><mxPoint x="440" y="110"/><mxPoint x="310" y="110"/></Array></mxGeometry></mxCell><mxCell id="289" value="Security" style="swimlane;horizontal=0;whiteSpace=wrap;html=1;rotation=-180;fillColor=#f5f5f5;fontColor=#333333;strokeColor=#666666;direction=east;" vertex="1" parent="1"><mxGeometry x="548" y="103" width="150" height="60" as="geometry"/></mxCell><mxCell id="327" value="Encryption" style="html=1;fillColor=#fff2cc;strokeColor=#d6b656;" vertex="1" parent="289"><mxGeometry x="13" y="10" width="110" height="40" as="geometry"/></mxCell><mxCell id="300" value="" style="endArrow=open;html=1;rounded=1;fontSize=12;exitX=0.5;exitY=0;exitDx=0;exitDy=0;entryX=0.5;entryY=1;entryDx=0;entryDy=0;dashed=1;endFill=0;" edge="1" parent="1" source="10" target="246"><mxGeometry width="50" height="50" relative="1" as="geometry"><mxPoint x="1440" y="1287" as="sourcePoint"/><mxPoint x="1490" y="1237" as="targetPoint"/></mxGeometry></mxCell><mxCell id="301" value="Use" style="edgeLabel;html=1;align=center;verticalAlign=middle;resizable=0;points=[];fontSize=12;" vertex="1" connectable="0" parent="300"><mxGeometry x="0.3353" y="-3" relative="1" as="geometry"><mxPoint as="offset"/></mxGeometry></mxCell><mxCell id="304" value="Symfony" style="swimlane;horizontal=0;whiteSpace=wrap;html=1;rotation=-180;fillColor=#e1d5e7;strokeColor=#9673a6;startSize=23;" vertex="1" parent="1"><mxGeometry x="1560" y="1164" width="160" height="210" as="geometry"/></mxCell><mxCell id="306" value="&lt;font style=&quot;font-size: 11px;&quot;&gt;Normalizer&lt;/font&gt;" style="html=1;fillColor=#dae8fc;strokeColor=#6c8ebf;" vertex="1" parent="304"><mxGeometry x="13" y="60" width="110" height="40" as="geometry"/></mxCell><mxCell id="308" value="FormType*" style="html=1;fillColor=#dae8fc;strokeColor=#6c8ebf;" vertex="1" parent="304"><mxGeometry x="13" y="10" width="110" height="40" as="geometry"/></mxCell><mxCell id="314" value="Use" style="edgeStyle=orthogonalEdgeStyle;rounded=1;orthogonalLoop=1;jettySize=auto;html=1;dashed=1;fontSize=12;startArrow=none;startFill=0;endArrow=open;endFill=0;entryX=0.5;entryY=1;entryDx=0;entryDy=0;" edge="1" parent="304" source="313" target="306"><mxGeometry relative="1" as="geometry"><mxPoint x="70" y="99" as="targetPoint"/></mxGeometry></mxCell><mxCell id="313" value="&lt;font style=&quot;font-size: 11px;&quot;&gt;Serializer&lt;/font&gt;" style="html=1;fillColor=#dae8fc;strokeColor=#6c8ebf;" vertex="1" parent="304"><mxGeometry x="13" y="139" width="110" height="40" as="geometry"/></mxCell><mxCell id="309" value="" style="edgeStyle=orthogonalEdgeStyle;rounded=1;orthogonalLoop=1;jettySize=auto;html=1;dashed=1;fontSize=12;startArrow=none;startFill=0;endArrow=open;endFill=0;" edge="1" parent="1" source="308"><mxGeometry relative="1" as="geometry"><mxPoint x="1470" y="1194" as="targetPoint"/></mxGeometry></mxCell><mxCell id="310" value="Populate" style="edgeLabel;html=1;align=center;verticalAlign=middle;resizable=0;points=[];fontSize=12;" vertex="1" connectable="0" parent="309"><mxGeometry x="-0.0653" relative="1" as="geometry"><mxPoint y="-1" as="offset"/></mxGeometry></mxCell><mxCell id="311" value="" style="edgeStyle=orthogonalEdgeStyle;rounded=1;orthogonalLoop=1;jettySize=auto;html=1;dashed=1;fontSize=12;startArrow=none;startFill=0;endArrow=open;endFill=0;exitX=0;exitY=0.5;exitDx=0;exitDy=0;" edge="1" parent="1" source="306"><mxGeometry relative="1" as="geometry"><mxPoint x="1563" y="1243" as="sourcePoint"/><mxPoint x="1470" y="1243" as="targetPoint"/></mxGeometry></mxCell><mxCell id="312" value="De/Normalize" style="edgeLabel;html=1;align=center;verticalAlign=middle;resizable=0;points=[];fontSize=12;" vertex="1" connectable="0" parent="311"><mxGeometry x="-0.0653" relative="1" as="geometry"><mxPoint x="-4" y="-1" as="offset"/></mxGeometry></mxCell><mxCell id="322" value="Symfony Vendors&lt;br&gt;" style="swimlane;horizontal=0;whiteSpace=wrap;html=1;fontSize=12;gradientDirection=east;fillColor=#6a00ff;fontColor=#ffffff;strokeColor=#3700CC;direction=east;" vertex="1" parent="1"><mxGeometry x="1563" y="893" width="157" height="241" as="geometry"/></mxCell><mxCell id="323" value="Symfony&#10;Form" style="shape=module;align=left;spacingLeft=20;align=center;verticalAlign=middle;fontSize=12;gradientDirection=east;fillColor=#f8cecc;strokeColor=#b85450;" vertex="1" parent="322"><mxGeometry x="50" y="160" width="90" height="60" as="geometry"/></mxCell><mxCell id="324" value="Symfony&#10;Serializer" style="shape=module;align=left;spacingLeft=20;align=center;verticalAlign=middle;fontSize=12;gradientDirection=east;fillColor=#f8cecc;strokeColor=#b85450;" vertex="1" parent="322"><mxGeometry x="50" y="43" width="90" height="60" as="geometry"/></mxCell><mxCell id="325" value="" style="edgeStyle=orthogonalEdgeStyle;rounded=1;orthogonalLoop=1;jettySize=auto;html=1;fontSize=12;startArrow=diamond;startFill=1;endArrow=none;endFill=0;entryX=1;entryY=0.5;entryDx=0;entryDy=0;exitX=1;exitY=0.5;exitDx=0;exitDy=0;" edge="1" parent="1" source="313" target="324"><mxGeometry relative="1" as="geometry"><mxPoint x="1638" y="1313" as="sourcePoint"/><mxPoint x="1638" y="1274" as="targetPoint"/><Array as="points"><mxPoint x="1760" y="1323"/><mxPoint x="1760" y="966"/></Array></mxGeometry></mxCell><mxCell id="326" value="" style="edgeStyle=orthogonalEdgeStyle;rounded=1;orthogonalLoop=1;jettySize=auto;html=1;fontSize=12;startArrow=diamond;startFill=1;endArrow=none;endFill=0;exitX=1;exitY=0.5;exitDx=0;exitDy=0;" edge="1" parent="1" source="308"><mxGeometry relative="1" as="geometry"><mxPoint x="1693" y="1333" as="sourcePoint"/><mxPoint x="1710" y="1083" as="targetPoint"/><Array as="points"><mxPoint x="1740" y="1194"/><mxPoint x="1740" y="1083"/><mxPoint x="1700" y="1083"/></Array></mxGeometry></mxCell><mxCell id="328" value="PhpSecLib" style="swimlane;horizontal=0;whiteSpace=wrap;html=1;rotation=-180;fillColor=#e1d5e7;strokeColor=#9673a6;startSize=23;direction=west;" vertex="1" parent="1"><mxGeometry x="340" y="23" width="150" height="140" as="geometry"/></mxCell><mxCell id="329" value="&lt;font style=&quot;font-size: 11px;&quot;&gt;Algorithm&lt;/font&gt;" style="html=1;fillColor=#d5e8d4;strokeColor=#82b366;" vertex="1" parent="328"><mxGeometry x="30" y="10" width="110" height="40" as="geometry"/></mxCell><mxCell id="333" value="" style="edgeStyle=orthogonalEdgeStyle;rounded=1;orthogonalLoop=1;jettySize=auto;html=1;dashed=1;fontSize=12;startArrow=none;startFill=0;endArrow=open;endFill=0;" edge="1" parent="328" source="332" target="329"><mxGeometry relative="1" as="geometry"/></mxCell><mxCell id="334" value="Use" style="edgeLabel;html=1;align=center;verticalAlign=middle;resizable=0;points=[];fontSize=12;" vertex="1" connectable="0" parent="333"><mxGeometry x="0.2593" relative="1" as="geometry"><mxPoint as="offset"/></mxGeometry></mxCell><mxCell id="332" value="&lt;font style=&quot;font-size: 11px;&quot;&gt;Encryption&lt;/font&gt;" style="html=1;fillColor=#dae8fc;strokeColor=#6c8ebf;" vertex="1" parent="328"><mxGeometry x="30" y="90" width="110" height="40" as="geometry"/></mxCell><mxCell id="335" value="" style="edgeStyle=orthogonalEdgeStyle;rounded=1;orthogonalLoop=1;jettySize=auto;html=1;dashed=1;fontSize=12;startArrow=none;startFill=0;endArrow=block;endFill=0;" edge="1" parent="1" source="332" target="327"><mxGeometry relative="1" as="geometry"/></mxCell><mxCell id="336" value="PhpSecLib Vendors" style="swimlane;horizontal=0;whiteSpace=wrap;html=1;rotation=-180;fillColor=#6a00ff;strokeColor=#3700CC;startSize=23;direction=west;fontColor=#ffffff;" vertex="1" parent="1"><mxGeometry x="110" y="23" width="150" height="140" as="geometry"/></mxCell><mxCell id="341" value="RSA" style="shape=module;align=left;spacingLeft=20;align=center;verticalAlign=middle;fontSize=12;gradientDirection=east;fillColor=#f8cecc;strokeColor=#b85450;" vertex="1" parent="336"><mxGeometry x="40" y="5" width="90" height="60" as="geometry"/></mxCell><mxCell id="342" value="DSA" style="shape=module;align=left;spacingLeft=20;align=center;verticalAlign=middle;fontSize=12;gradientDirection=east;fillColor=#f8cecc;strokeColor=#b85450;" vertex="1" parent="336"><mxGeometry x="40" y="75" width="90" height="60" as="geometry"/></mxCell><mxCell id="343" value="" style="edgeStyle=orthogonalEdgeStyle;rounded=1;orthogonalLoop=1;jettySize=auto;html=1;dashed=1;fontSize=12;startArrow=none;startFill=0;endArrow=open;endFill=0;exitX=0;exitY=0.5;exitDx=0;exitDy=0;" edge="1" parent="1" source="328"><mxGeometry relative="1" as="geometry"><mxPoint x="330" y="93" as="sourcePoint"/><mxPoint x="260" y="93" as="targetPoint"/></mxGeometry></mxCell><mxCell id="344" value="Use" style="edgeLabel;html=1;align=center;verticalAlign=middle;resizable=0;points=[];fontSize=12;" vertex="1" connectable="0" parent="343"><mxGeometry x="0.2593" relative="1" as="geometry"><mxPoint y="5" as="offset"/></mxGeometry></mxCell><mxCell id="346" value="" style="endArrow=none;html=1;rounded=1;dashed=1;fontSize=10;exitX=0.462;exitY=0.978;exitDx=0;exitDy=0;entryX=0.25;entryY=0;entryDx=0;entryDy=0;endFill=0;startArrow=open;startFill=0;exitPerimeter=0;" edge="1" parent="1" source="345" target="21"><mxGeometry width="50" height="50" relative="1" as="geometry"><mxPoint x="421" y="773" as="sourcePoint"/><mxPoint x="771" y="773" as="targetPoint"/><Array as="points"/></mxGeometry></mxCell><mxCell id="347" value="Validate" style="edgeLabel;html=1;align=center;verticalAlign=middle;resizable=0;points=[];fontSize=10;" vertex="1" connectable="0" parent="346"><mxGeometry x="0.6486" y="-2" relative="1" as="geometry"><mxPoint as="offset"/></mxGeometry></mxCell><mxCell id="352" value="" style="endArrow=open;dashed=1;html=1;dashPattern=1 3;strokeWidth=2;rounded=1;fontSize=10;entryX=0;entryY=0.5;entryDx=0;entryDy=0;endFill=0;" edge="1" parent="1" target="348"><mxGeometry width="50" height="50" relative="1" as="geometry"><mxPoint x="1010" y="913" as="sourcePoint"/><mxPoint x="1070" y="913" as="targetPoint"/><Array as="points"/></mxGeometry></mxCell><mxCell id="353" value="Use" style="edgeLabel;html=1;align=center;verticalAlign=middle;resizable=0;points=[];fontSize=10;" vertex="1" connectable="0" parent="352"><mxGeometry x="-0.053" y="-2" relative="1" as="geometry"><mxPoint x="-17" y="-13" as="offset"/></mxGeometry></mxCell><mxCell id="354" value="" style="endArrow=open;dashed=1;html=1;strokeWidth=2;rounded=1;fontSize=10;entryX=0.25;entryY=1;entryDx=0;entryDy=0;endFill=0;exitX=0.25;exitY=1;exitDx=0;exitDy=0;fillColor=#dae8fc;strokeColor=#6c8ebf;" edge="1" parent="1" source="348" target="257"><mxGeometry width="50" height="50" relative="1" as="geometry"><mxPoint x="1020" y="923" as="sourcePoint"/><mxPoint x="1120" y="923" as="targetPoint"/><Array as="points"><mxPoint x="1138" y="963"/><mxPoint x="1100" y="963"/><mxPoint x="1050" y="963"/><mxPoint x="1050" y="1393"/><mxPoint x="1213" y="1393"/></Array></mxGeometry></mxCell><mxCell id="355" value="Projection" style="edgeLabel;html=1;align=center;verticalAlign=middle;resizable=0;points=[];fontSize=10;" vertex="1" connectable="0" parent="354"><mxGeometry x="-0.053" y="-2" relative="1" as="geometry"><mxPoint x="36" y="-236" as="offset"/></mxGeometry></mxCell><mxCell id="361" value="FlySystem" style="swimlane;horizontal=0;whiteSpace=wrap;html=1;rotation=-180;fillColor=#e1d5e7;strokeColor=#9673a6;startSize=23;" vertex="1" parent="1"><mxGeometry x="1270" y="723" width="160" height="70" as="geometry"/></mxCell><mxCell id="365" value="&lt;font style=&quot;font-size: 11px;&quot;&gt;Workspace&lt;/font&gt;" style="html=1;fillColor=#dae8fc;strokeColor=#6c8ebf;" vertex="1" parent="361"><mxGeometry x="13" y="20" width="110" height="40" as="geometry"/></mxCell><mxCell id="369" value="" style="edgeStyle=orthogonalEdgeStyle;rounded=1;orthogonalLoop=1;jettySize=auto;html=1;fontSize=12;startArrow=none;startFill=0;endArrow=block;endFill=0;dashed=1;" edge="1" parent="1" source="365" target="356"><mxGeometry relative="1" as="geometry"/></mxCell><mxCell id="370" value="" style="endArrow=open;dashed=1;html=1;dashPattern=1 3;strokeWidth=2;rounded=1;fontSize=10;entryX=0;entryY=0.5;entryDx=0;entryDy=0;endFill=0;" edge="1" parent="1"><mxGeometry width="50" height="50" relative="1" as="geometry"><mxPoint x="1010" y="764.5" as="sourcePoint"/><mxPoint x="1110" y="763" as="targetPoint"/><Array as="points"/></mxGeometry></mxCell><mxCell id="371" value="Read/Write" style="edgeLabel;html=1;align=center;verticalAlign=middle;resizable=0;points=[];fontSize=10;" vertex="1" connectable="0" parent="370"><mxGeometry x="-0.053" y="-2" relative="1" as="geometry"><mxPoint x="-17" y="7" as="offset"/></mxGeometry></mxCell><mxCell id="372" value="FlySystem" style="swimlane;horizontal=0;whiteSpace=wrap;html=1;rotation=-180;fillColor=#6a00ff;strokeColor=#3700CC;startSize=23;fontColor=#ffffff;" vertex="1" parent="1"><mxGeometry x="1270" y="613" width="160" height="70" as="geometry"/></mxCell><mxCell id="373" value="&lt;font style=&quot;font-size: 11px;&quot;&gt;Filesystem&lt;/font&gt;" style="html=1;fillColor=#dae8fc;strokeColor=#6c8ebf;" vertex="1" parent="372"><mxGeometry x="13" y="20" width="110" height="40" as="geometry"/></mxCell><mxCell id="374" value="" style="edgeStyle=orthogonalEdgeStyle;rounded=1;orthogonalLoop=1;jettySize=auto;html=1;fontSize=12;startArrow=diamond;startFill=1;endArrow=none;endFill=0;" edge="1" parent="1" source="365" target="373"><mxGeometry relative="1" as="geometry"/></mxCell><mxCell id="376" value="Symfony Vendors&lt;br&gt;" style="swimlane;horizontal=0;whiteSpace=wrap;html=1;fontSize=12;gradientDirection=east;fillColor=#6a00ff;fontColor=#ffffff;strokeColor=#3700CC;direction=west;" vertex="1" parent="1"><mxGeometry x="20" y="1033" width="160" height="131" as="geometry"/></mxCell><mxCell id="378" value="Symfony&#10;Process" style="shape=module;align=left;spacingLeft=20;align=center;verticalAlign=middle;fontSize=12;gradientDirection=east;fillColor=#f8cecc;strokeColor=#b85450;" vertex="1" parent="376"><mxGeometry x="24.5" y="35.5" width="87" height="55" as="geometry"/></mxCell><mxCell id="379" value="" style="edgeStyle=orthogonalEdgeStyle;rounded=1;orthogonalLoop=1;jettySize=auto;html=1;fontSize=12;startArrow=diamond;startFill=1;endArrow=none;endFill=0;entryX=0.5;entryY=1;entryDx=0;entryDy=0;" edge="1" parent="1" source="132" target="378"><mxGeometry relative="1" as="geometry"><mxPoint x="90" y="1123" as="targetPoint"/></mxGeometry></mxCell><mxCell id="388" value="" style="edgeStyle=orthogonalEdgeStyle;rounded=1;orthogonalLoop=1;jettySize=auto;html=1;fontSize=12;startArrow=none;startFill=0;endArrow=block;endFill=0;dashed=1;" edge="1" parent="1" source="380"><mxGeometry relative="1" as="geometry"><mxPoint x="100" y="803" as="targetPoint"/></mxGeometry></mxCell><mxCell id="380" value="ProjectBuilding" style="swimlane;horizontal=0;whiteSpace=wrap;html=1;rotation=-180;fillColor=#e1d5e7;strokeColor=#9673a6;" vertex="1" parent="1"><mxGeometry x="20" y="833" width="160" height="160" as="geometry"/></mxCell><mxCell id="382" value="Composer" style="html=1;fillColor=#dae8fc;strokeColor=#6c8ebf;" vertex="1" parent="380"><mxGeometry x="10" y="10" width="110" height="20" as="geometry"/></mxCell><mxCell id="383" value="Make" style="html=1;fillColor=#dae8fc;strokeColor=#6c8ebf;" vertex="1" parent="380"><mxGeometry x="10" y="38.5" width="110" height="20" as="geometry"/></mxCell><mxCell id="384" value="Npm" style="html=1;fillColor=#dae8fc;strokeColor=#6c8ebf;" vertex="1" parent="380"><mxGeometry x="10" y="70" width="110" height="20" as="geometry"/></mxCell><mxCell id="385" value="Pip" style="html=1;fillColor=#dae8fc;strokeColor=#6c8ebf;" vertex="1" parent="380"><mxGeometry x="10" y="100" width="110" height="20" as="geometry"/></mxCell><mxCell id="386" value="Symfony Console" style="html=1;fillColor=#dae8fc;strokeColor=#6c8ebf;" vertex="1" parent="380"><mxGeometry x="10" y="130" width="110" height="20" as="geometry"/></mxCell><mxCell id="387" value="" style="edgeStyle=orthogonalEdgeStyle;rounded=1;orthogonalLoop=1;jettySize=auto;html=1;fontSize=12;startArrow=diamond;startFill=1;endArrow=none;endFill=0;" edge="1" parent="1" target="378"><mxGeometry relative="1" as="geometry"><mxPoint x="88" y="993" as="sourcePoint"/><mxPoint x="98" y="1133.5" as="targetPoint"/></mxGeometry></mxCell><mxCell id="389" value="Repository" style="swimlane;horizontal=0;whiteSpace=wrap;html=1;rotation=-180;fillColor=#f5f5f5;fontColor=#333333;strokeColor=#666666;direction=west;" vertex="1" parent="1"><mxGeometry x="890" y="523" width="150" height="70" as="geometry"/></mxCell><mxCell id="390" value="CloningAgent" style="html=1;fillColor=#fff2cc;strokeColor=#d6b656;" vertex="1" parent="389"><mxGeometry x="30" y="15" width="110" height="40" as="geometry"/></mxCell><mxCell id="391" value="" style="endArrow=none;html=1;rounded=1;dashed=1;fontSize=10;exitX=0.25;exitY=1;exitDx=0;exitDy=0;entryX=0.75;entryY=0;entryDx=0;entryDy=0;endFill=0;startArrow=open;startFill=0;" edge="1" parent="1" source="390" target="21"><mxGeometry width="50" height="50" relative="1" as="geometry"><mxPoint x="802.8200000000002" y="587.1200000000001" as="sourcePoint"/><mxPoint x="803.5" y="758" as="targetPoint"/><Array as="points"><mxPoint x="948" y="703"/><mxPoint x="860" y="703"/></Array></mxGeometry></mxCell><mxCell id="392" value="Clone project" style="edgeLabel;html=1;align=center;verticalAlign=middle;resizable=0;points=[];fontSize=10;" vertex="1" connectable="0" parent="391"><mxGeometry x="0.6486" y="-2" relative="1" as="geometry"><mxPoint x="50" y="2" as="offset"/></mxGeometry></mxCell><mxCell id="393" value="" style="endArrow=open;dashed=1;html=1;dashPattern=1 3;strokeWidth=2;rounded=1;fontSize=10;endFill=0;exitX=0.865;exitY=0.995;exitDx=0;exitDy=0;exitPerimeter=0;" edge="1" parent="1" source="390"><mxGeometry width="50" height="50" relative="1" as="geometry"><mxPoint x="1020" y="774.5" as="sourcePoint"/><mxPoint x="1110" y="763" as="targetPoint"/><Array as="points"><mxPoint x="1020" y="743"/><mxPoint x="1070" y="743"/><mxPoint x="1070" y="763"/></Array></mxGeometry></mxCell><mxCell id="395" value="Read/Write" style="edgeLabel;html=1;align=center;verticalAlign=middle;resizable=0;points=[];fontSize=10;" vertex="1" connectable="0" parent="1"><mxGeometry x="1039.9965207818686" y="732.9982271756171" as="geometry"/></mxCell><mxCell id="396" value="Git" style="swimlane;horizontal=0;whiteSpace=wrap;html=1;rotation=-180;fillColor=#f5f5f5;fontColor=#333333;strokeColor=#666666;direction=east;" vertex="1" parent="1"><mxGeometry x="1070" y="523" width="150" height="70" as="geometry"/></mxCell><mxCell id="397" value="CloningAgent" style="html=1;fillColor=#dae8fc;strokeColor=#6c8ebf;" vertex="1" parent="396"><mxGeometry x="10" y="15" width="110" height="40" as="geometry"/></mxCell><mxCell id="398" value="" style="edgeStyle=orthogonalEdgeStyle;rounded=1;orthogonalLoop=1;jettySize=auto;html=1;dashed=1;fontSize=12;startArrow=none;startFill=0;endArrow=block;endFill=0;" edge="1" parent="1" source="397" target="390"><mxGeometry relative="1" as="geometry"/></mxCell><mxCell id="399" value="Symfony Vendors&lt;br&gt;" style="swimlane;horizontal=0;whiteSpace=wrap;html=1;fontSize=12;gradientDirection=east;fillColor=#6a00ff;fontColor=#ffffff;strokeColor=#3700CC;direction=west;" vertex="1" parent="1"><mxGeometry x="1270" y="453" width="160" height="131" as="geometry"/></mxCell><mxCell id="400" value="Symfony&#10;Process" style="shape=module;align=left;spacingLeft=20;align=center;verticalAlign=middle;fontSize=12;gradientDirection=east;fillColor=#f8cecc;strokeColor=#b85450;" vertex="1" parent="399"><mxGeometry x="24.5" y="38" width="87" height="55" as="geometry"/></mxCell><mxCell id="401" value="" style="endArrow=none;html=1;rounded=1;fontSize=12;entryX=0.109;entryY=0.444;entryDx=0;entryDy=0;entryPerimeter=0;startArrow=diamond;startFill=1;exitX=0.549;exitY=0.015;exitDx=0;exitDy=0;exitPerimeter=0;" edge="1" parent="1" source="397" target="400"><mxGeometry width="50" height="50" relative="1" as="geometry"><mxPoint x="1140" y="533" as="sourcePoint"/><mxPoint x="1140" y="413" as="targetPoint"/><Array as="points"><mxPoint x="1140" y="515"/></Array></mxGeometry></mxCell><mxCell id="423" value="" style="edgeStyle=orthogonalEdgeStyle;rounded=1;orthogonalLoop=1;jettySize=auto;html=1;fontSize=10;startArrow=none;startFill=0;endArrow=open;endFill=0;dashed=1;exitX=0.5;exitY=1;exitDx=0;exitDy=0;exitPerimeter=0;entryX=0.5;entryY=1;entryDx=0;entryDy=0;" edge="1" parent="1" source="416" target="20"><mxGeometry relative="1" as="geometry"><mxPoint x="891.5" y="408" as="sourcePoint"/><mxPoint x="871" y="328" as="targetPoint"/><Array as="points"><mxPoint x="877" y="493"/><mxPoint x="635" y="493"/></Array></mxGeometry></mxCell><mxCell id="424" value="Create and Execute" style="edgeLabel;html=1;align=center;verticalAlign=middle;resizable=0;points=[];fontSize=10;" vertex="1" connectable="0" parent="423"><mxGeometry x="-0.3211" y="-3" relative="1" as="geometry"><mxPoint x="4" y="1" as="offset"/></mxGeometry></mxCell><mxCell id="426" value="" style="edgeStyle=orthogonalEdgeStyle;rounded=1;orthogonalLoop=1;jettySize=auto;html=1;dashed=1;fontSize=12;startArrow=none;startFill=0;endArrow=open;endFill=0;exitX=0.75;exitY=0;exitDx=0;exitDy=0;entryX=0.5;entryY=1;entryDx=0;entryDy=0;" edge="1" parent="1" source="408" target="327"><mxGeometry relative="1" as="geometry"><mxPoint x="490" y="163" as="sourcePoint"/><mxPoint x="570" y="163" as="targetPoint"/></mxGeometry></mxCell><mxCell id="427" value="" style="edgeStyle=orthogonalEdgeStyle;rounded=1;orthogonalLoop=1;jettySize=auto;html=1;dashed=1;fontSize=12;startArrow=none;startFill=0;endArrow=open;endFill=0;exitX=0.25;exitY=0;exitDx=0;exitDy=0;entryX=0.5;entryY=1;entryDx=0;entryDy=0;" edge="1" parent="1" source="404" target="327"><mxGeometry relative="1" as="geometry"><mxPoint x="625" y="298" as="sourcePoint"/><mxPoint x="625" y="183" as="targetPoint"/><Array as="points"><mxPoint x="705" y="223"/><mxPoint x="615" y="223"/></Array></mxGeometry></mxCell><mxCell id="428" value="" style="edgeStyle=orthogonalEdgeStyle;rounded=1;orthogonalLoop=1;jettySize=auto;html=1;dashed=1;fontSize=12;startArrow=none;startFill=0;endArrow=open;endFill=0;exitX=0.25;exitY=0;exitDx=0;exitDy=0;entryX=0.5;entryY=1;entryDx=0;entryDy=0;" edge="1" parent="1" source="406" target="327"><mxGeometry relative="1" as="geometry"><mxPoint x="635" y="308" as="sourcePoint"/><mxPoint x="620" y="173" as="targetPoint"/><Array as="points"><mxPoint x="836" y="223"/><mxPoint x="615" y="223"/></Array></mxGeometry></mxCell><mxCell id="429" value="Encrypt" style="edgeLabel;html=1;align=center;verticalAlign=middle;resizable=0;points=[];fontSize=10;" vertex="1" connectable="0" parent="428"><mxGeometry x="0.8357" y="1" relative="1" as="geometry"><mxPoint as="offset"/></mxGeometry></mxCell><mxCell id="430" value="Symfony Recipe Steps" style="swimlane;horizontal=0;whiteSpace=wrap;html=1;rotation=-180;fillColor=#e1d5e7;strokeColor=#9673a6;startSize=23;" vertex="1" parent="1"><mxGeometry x="750" y="20" width="160" height="180" as="geometry"/></mxCell><mxCell id="431" value="&lt;font style=&quot;font-size: 11px;&quot;&gt;DispatchJob&lt;/font&gt;" style="html=1;fillColor=#dae8fc;strokeColor=#6c8ebf;" vertex="1" parent="430"><mxGeometry x="13" y="10.5" width="110" height="40" as="geometry"/></mxCell><mxCell id="434" value="&lt;font style=&quot;font-size: 11px;&quot;&gt;DispatchResult&lt;/font&gt;" style="html=1;fillColor=#dae8fc;strokeColor=#6c8ebf;" vertex="1" parent="430"><mxGeometry x="13" y="129.5" width="110" height="40" as="geometry"/></mxCell><mxCell id="432" value="DispatchHistory" style="html=1;fillColor=#dae8fc;strokeColor=#6c8ebf;" vertex="1" parent="430"><mxGeometry x="13" y="70.5" width="110" height="40" as="geometry"/></mxCell><mxCell id="435" value="" style="edgeStyle=orthogonalEdgeStyle;rounded=1;orthogonalLoop=1;jettySize=auto;html=1;dashed=1;fontSize=12;startArrow=none;startFill=0;endArrow=block;endFill=0;exitX=0.878;exitY=-0.005;exitDx=0;exitDy=0;exitPerimeter=0;" edge="1" parent="1" source="430"><mxGeometry relative="1" as="geometry"><mxPoint x="489" y="93" as="sourcePoint"/><mxPoint x="770" y="243" as="targetPoint"/></mxGeometry></mxCell><mxCell id="436" value="" style="edgeStyle=orthogonalEdgeStyle;rounded=1;orthogonalLoop=1;jettySize=auto;html=1;dashed=1;fontSize=12;startArrow=none;startFill=0;endArrow=open;endFill=0;exitX=1.002;exitY=0.443;exitDx=0;exitDy=0;entryX=0;entryY=0.5;entryDx=0;entryDy=0;exitPerimeter=0;" edge="1" parent="1" source="430" target="289"><mxGeometry relative="1" as="geometry"><mxPoint x="625" y="335" as="sourcePoint"/><mxPoint x="625" y="150" as="targetPoint"/></mxGeometry></mxCell><mxCell id="437" value="Use" style="edgeLabel;html=1;align=center;verticalAlign=middle;resizable=0;points=[];fontSize=10;" vertex="1" connectable="0" parent="436"><mxGeometry x="-0.1323" relative="1" as="geometry"><mxPoint as="offset"/></mxGeometry></mxCell><mxCell id="442" value="Legend" style="swimlane;whiteSpace=wrap;html=1;fontSize=10;gradientDirection=east;" vertex="1" parent="1"><mxGeometry x="970" y="23" width="740" height="110" as="geometry"/></mxCell><mxCell id="63" value="&lt;i&gt;Interface&lt;/i&gt;" style="html=1;fillColor=#fff2cc;strokeColor=#d6b656;" vertex="1" parent="442"><mxGeometry x="24.5" y="55" width="60" height="30" as="geometry"/></mxCell><mxCell id="64" value="&lt;i&gt;Class&lt;/i&gt;" style="html=1;fillColor=#dae8fc;strokeColor=#6c8ebf;" vertex="1" parent="442"><mxGeometry x="94.5" y="55" width="60" height="30" as="geometry"/></mxCell><mxCell id="65" value="&lt;i&gt;Enums&lt;/i&gt;" style="html=1;fillColor=#d5e8d4;strokeColor=#82b366;" vertex="1" parent="442"><mxGeometry x="164.5" y="55" width="60" height="30" as="geometry"/></mxCell><mxCell id="143" value="PaaS" style="swimlane;whiteSpace=wrap;html=1;fontSize=9;gradientDirection=east;fillColor=#f5f5f5;fontColor=#333333;strokeColor=#666666;" vertex="1" parent="442"><mxGeometry x="244.5" y="50" width="80" height="40" as="geometry"/></mxCell><mxCell id="144" value="Implementation" style="swimlane;whiteSpace=wrap;html=1;fontSize=9;gradientDirection=east;fillColor=#e1d5e7;strokeColor=#9673a6;" vertex="1" parent="442"><mxGeometry x="334.5" y="50" width="90" height="40" as="geometry"/></mxCell><mxCell id="214" value="Vendors" style="swimlane;whiteSpace=wrap;html=1;fontSize=9;gradientDirection=east;fillColor=#6a00ff;strokeColor=#3700CC;fontColor=#ffffff;" vertex="1" parent="442"><mxGeometry x="434.5" y="50" width="90" height="40" as="geometry"/></mxCell></root></mxGraphModel></diagram></mxfile>